# Blender v2.79 (sub 0) OBJ File: 'Base.blend'
# www.blender.org
mtllib CornerRoom.mtl
o Plane
v 0.136400 0.500000 -0.136401
v 0.136400 0.500000 -0.227301
v 0.136400 0.500000 0.227301
v -0.499950 0.000000 0.499950
v 0.227300 0.500000 0.136401
v 0.227300 0.500000 -0.136401
v 0.227300 0.500000 -0.227301
v 0.227300 0.500000 0.227301
v 0.227300 0.500000 0.499950
v 0.136400 0.500000 0.499950
v -0.499950 0.500000 -0.136401
v -0.499950 0.500000 -0.227301
v -0.499950 0.000000 -0.227301
v -0.499950 0.000000 -0.136401
v -0.499950 0.000000 0.136401
v -0.499950 0.000000 0.227301
v -0.227301 0.000000 0.499950
v -0.136401 0.000000 0.499950
v 0.136400 0.000000 0.499950
v 0.227300 0.000000 0.499950
v 0.227300 0.000000 -0.227301
v 0.227300 0.000000 -0.136401
v 0.227300 0.000000 0.136401
v 0.227300 0.000000 0.227301
v 0.136400 0.000000 -0.227301
v 0.136400 0.000000 -0.136401
v 0.136400 0.000000 0.136401
v 0.136400 0.000000 0.227301
v -0.136401 0.000000 -0.227301
v -0.136401 0.000000 -0.136401
v -0.136401 0.000000 0.136401
v -0.136401 0.000000 0.227301
v -0.227301 0.000000 -0.227301
v -0.227301 0.000000 -0.136401
v -0.227301 0.000000 0.136401
v -0.227301 0.000000 0.227301
v 0.136400 0.500000 0.136401
v -0.136401 0.500000 -0.227301
v -0.136401 0.500000 -0.136401
v -0.227301 0.500000 -0.227301
v -0.227301 0.500000 -0.136401
vn 0.0000 1.0000 0.0000
vn 0.0000 0.0000 1.0000
vn 0.0000 0.0000 -1.0000
vn -1.0000 0.0000 0.0000
vn 1.0000 0.0000 0.0000
usemtl None
s off
f 36//1 16//1 4//1 17//1
f 30//2 26//2 1//2 39//2
f 33//3 13//3 12//3 40//3
f 28//1 32//1 18//1 19//1
f 32//1 36//1 17//1 18//1
f 19//2 20//2 9//2 10//2
f 40//1 12//1 11//1 41//1
f 38//1 40//1 41//1 39//1
f 2//1 38//1 39//1 1//1
f 5//1 37//1 3//1 8//1
f 25//3 29//3 38//3 2//3
f 28//4 19//4 10//4 3//4
f 24//5 23//5 5//5 8//5
f 6//1 1//1 37//1 5//1
f 34//2 30//2 39//2 41//2
f 26//1 30//1 31//1 27//1
f 27//1 31//1 32//1 28//1
f 7//1 2//1 1//1 6//1
f 23//5 22//5 6//5 5//5
f 30//1 34//1 35//1 31//1
f 31//1 35//1 36//1 32//1
f 8//1 3//1 10//1 9//1
f 29//3 33//3 40//3 38//3
f 34//1 14//1 15//1 35//1
f 35//1 15//1 16//1 36//1
f 14//2 34//2 41//2 11//2
f 20//5 24//5 8//5 9//5
f 13//4 14//4 11//4 12//4
f 26//4 27//4 37//4 1//4
f 27//4 28//4 3//4 37//4
f 21//3 25//3 2//3 7//3
f 22//5 21//5 7//5 6//5
