# Blender v2.79 (sub 0) OBJ File: 'Brick_1x2_Deformed_Top.blend'
# www.blender.org
mtllib Brick_1x2_Deformed_Top.mtl
o Cube_Cube.001
v -0.287835 -0.296987 0.650000
v -0.287835 -0.287987 0.660000
v -0.296835 -0.287987 0.650000
v -0.296959 0.288013 0.641720
v -0.296959 0.297013 0.631720
v -0.305959 0.288013 0.631720
v -0.287835 -0.296987 -0.650000
v -0.296835 -0.287987 -0.650000
v -0.287835 -0.287987 -0.660000
v -0.287835 0.256133 -0.633446
v -0.287835 0.247133 -0.643446
v -0.296835 0.247133 -0.633446
v 0.288165 -0.296987 0.650000
v 0.297165 -0.287987 0.650000
v 0.288165 -0.287987 0.660000
v 0.293126 0.297013 0.626237
v 0.293126 0.288013 0.636237
v 0.302126 0.288013 0.626237
v 0.288165 -0.296987 -0.650000
v 0.288165 -0.287987 -0.660000
v 0.297165 -0.287987 -0.650000
v 0.278347 0.297013 -0.637194
v 0.287347 0.288013 -0.637194
v 0.278347 0.288013 -0.647194
v -0.287835 -0.296987 -0.325000
v -0.287835 -0.296987 0.000000
v -0.287835 -0.296987 0.325000
v -0.296835 -0.287987 0.325000
v -0.296835 -0.287987 0.000000
v -0.296835 -0.287987 -0.325000
v -0.287835 -0.143987 0.660000
v -0.303262 0.000013 0.630124
v -0.287835 0.144013 0.660000
v -0.296835 0.144013 0.650000
v -0.312262 0.000013 0.620124
v -0.296835 -0.143987 0.650000
v -0.295486 0.297013 0.325362
v -0.264032 0.297013 0.004277
v -0.287835 0.297013 -0.325000
v -0.296835 0.288013 -0.325000
v -0.273032 0.288013 0.004277
v -0.304486 0.288013 0.325362
v -0.287835 0.144013 -0.660000
v -0.287835 -0.008753 -0.634313
v -0.287835 -0.143987 -0.660000
v -0.296835 -0.143987 -0.650000
v -0.296835 -0.008753 -0.624313
v -0.296835 0.144013 -0.650000
v 0.144165 -0.296987 -0.650000
v 0.000165 -0.296987 -0.650000
v -0.143835 -0.296987 -0.650000
v -0.143835 -0.287987 -0.660000
v 0.000165 -0.287987 -0.660000
v 0.144165 -0.287987 -0.660000
v -0.143835 0.297013 -0.650000
v 0.000165 0.297013 -0.650000
v 0.144165 0.297013 -0.650000
v 0.144165 0.288013 -0.660000
v 0.000165 0.288013 -0.660000
v -0.143835 0.288013 -0.660000
v 0.268919 0.144013 -0.621613
v 0.297165 0.000013 -0.650000
v 0.310237 -0.143987 -0.659468
v 0.301237 -0.143987 -0.669468
v 0.288165 0.000013 -0.660000
v 0.259919 0.144013 -0.631613
v 0.288165 -0.296987 0.325000
v 0.288165 -0.296987 0.000000
v 0.288165 -0.296987 -0.325000
v 0.297165 -0.287987 -0.325000
v 0.297165 -0.287987 0.000000
v 0.297165 -0.287987 0.325000
v 0.291730 0.297013 -0.327502
v 0.262338 0.297013 -0.045208
v 0.265093 0.297013 0.325000
v 0.274093 0.288013 0.325000
v 0.271338 0.288013 -0.045208
v 0.300730 0.288013 -0.327502
v 0.288165 0.144013 0.660000
v 0.288165 0.000013 0.660000
v 0.288165 -0.143987 0.660000
v 0.297165 -0.143987 0.650000
v 0.297165 0.000013 0.650000
v 0.297165 0.144013 0.650000
v -0.143835 -0.296987 0.650000
v 0.000165 -0.296987 0.650000
v 0.144165 -0.296987 0.650000
v 0.144165 -0.287987 0.660000
v 0.000165 -0.287987 0.660000
v -0.143835 -0.287987 0.660000
v 0.144165 0.297013 0.650000
v 0.057164 0.297013 0.615047
v -0.143835 0.297013 0.650000
v -0.143835 0.288013 0.660000
v 0.057164 0.288013 0.625047
v 0.144165 0.288013 0.660000
v -0.132886 -0.289303 -0.333422
v -0.126571 -0.284875 0.083833
v -0.101622 -0.313338 0.372554
v -0.040273 -0.304223 -0.383891
v -0.045389 -0.328603 -0.039622
v -0.044803 -0.248744 0.350771
v 0.109992 -0.350695 -0.335818
v 0.136545 -0.296092 -0.006943
v 0.157834 -0.250004 0.341644
v -0.144688 -0.150581 -0.674551
v 0.020407 -0.154646 -0.571155
v 0.150041 -0.153584 -0.657446
v -0.145062 -0.001579 -0.661246
v 0.010109 0.000830 -0.649205
v 0.130875 -0.018287 -0.694968
v -0.138177 0.089591 -0.612731
v 0.004050 0.108298 -0.601865
v 0.176169 0.155042 -0.643255
v -0.335420 -0.127036 0.306795
v -0.333215 -0.135604 0.044492
v -0.270865 -0.132956 -0.359129
v -0.354238 -0.061488 0.302796
v -0.304640 0.026455 -0.010730
v -0.276065 -0.028566 -0.318309
v -0.238536 0.157477 0.397629
v -0.301342 0.155051 0.007009
v -0.294505 0.149243 -0.324443
v 0.093681 0.340163 -0.298063
v 0.135687 0.320541 0.005138
v 0.177918 0.287218 0.344584
v -0.000201 0.298402 -0.322615
v -0.032814 0.289129 0.045530
v 0.032346 0.239082 0.312558
v -0.097780 0.325377 -0.373825
v -0.149293 0.273773 0.014737
v -0.133878 0.312086 0.294520
v 0.302228 -0.153398 -0.315100
v 0.251715 -0.162121 0.008891
v 0.293080 -0.166314 0.360225
v 0.297045 0.000034 -0.325019
v 0.347214 0.044363 -0.057554
v 0.297911 0.000013 0.326224
v 0.324804 0.081279 -0.286793
v 0.354029 0.155157 -0.045595
v 0.351510 0.180863 0.364193
v 0.172785 -0.108536 0.667751
v -0.044071 -0.146650 0.631988
v -0.176440 -0.099480 0.681713
v 0.144718 0.020013 0.659043
v 0.057244 0.025246 0.665511
v -0.112868 0.018095 0.711179
v 0.133914 0.201709 0.639783
v 0.034730 0.130356 0.704349
v -0.090653 0.135329 0.666954
vt 0.583588 0.915259
vt 0.561067 0.995421
vt 0.500003 0.995421
vt 0.500003 0.919820
vt 0.202341 0.537840
vt 0.248030 0.517161
vt 0.248030 0.687788
vt 0.186966 0.687785
vt 0.569131 0.191861
vt 0.503828 0.175870
vt 0.503828 0.005242
vt 0.564895 0.005243
vt 0.310745 0.176172
vt 0.251888 0.175880
vt 0.251888 0.005252
vt 0.312950 0.005252
vt 0.448647 0.762634
vt 0.435108 0.693022
vt 0.496174 0.693015
vt 0.496174 0.768600
vt 0.751912 0.676091
vt 0.751914 0.681939
vt 0.748097 0.676739
vt 0.503820 0.000000
vt 0.500003 0.005250
vt 0.500003 0.005252
vt 0.496136 0.005253
vt 0.496187 0.000001
vt 0.503828 0.687755
vt 0.503820 0.693012
vt 0.500003 0.687762
vt 0.996182 0.676074
vt 1.000000 0.676721
vt 0.996183 0.681922
vt 0.251888 0.687771
vt 0.248072 0.693021
vt 0.000000 0.005250
vt 0.003816 0.000000
vt 0.003775 0.005267
vt 0.251888 0.005262
vt 0.248030 0.005280
vt 0.248071 0.000012
vt 0.500003 0.517136
vt 0.500003 0.687765
vt 0.496136 0.687766
vt 0.496136 0.517138
vt 0.313000 0.693014
vt 0.251938 0.693013
vt 0.251888 0.687765
vt 0.312950 0.687765
vt 0.503828 0.517127
vt 0.500003 0.517134
vt 0.435125 0.000001
vt 0.435074 0.005253
vt 0.312955 0.999993
vt 0.251888 1.000000
vt 0.251907 0.995384
vt 0.312974 0.995377
vt 0.687030 0.687755
vt 0.748097 0.687756
vt 0.748089 0.693013
vt 0.687022 0.693013
vt 0.064839 0.005270
vt 0.064880 0.000003
vt 0.996182 0.169018
vt 0.996182 0.000000
vt 1.000000 0.000647
vt 1.000000 0.169666
vt 0.251888 0.517144
vt 0.064880 0.693012
vt 0.003817 0.693009
vt 0.003775 0.687776
vt 0.064839 0.687779
vt 0.935114 0.676078
vt 0.935116 0.681926
vt 0.564887 0.000000
vt 0.940919 0.519095
vt 0.996182 0.507055
vt 0.751912 0.507073
vt 0.830878 0.530621
vt 0.812979 0.676087
vt 0.854985 0.523939
vt 0.874047 0.676082
vt 0.751912 0.000018
vt 0.812979 0.000013
vt 0.817624 0.165204
vt 0.751912 0.169036
vt 0.820303 0.382519
vt 0.751912 0.338054
vt 0.874047 0.000009
vt 0.856896 0.137881
vt 0.854723 0.315166
vt 0.935114 0.000004
vt 0.920612 0.159533
vt 0.931883 0.334495
vt 0.996182 0.338037
vt 0.748097 0.005243
vt 0.687030 0.005243
vt 0.687022 0.000001
vt 0.748089 0.000001
vt 0.625962 0.005243
vt 0.625954 0.000000
vt 0.812981 0.681935
vt 0.874048 0.681930
vt 0.187008 0.693018
vt 0.125944 0.693015
vt 0.125902 0.687782
vt 0.251888 0.175890
vt 0.248030 0.175907
vt 0.251888 0.346517
vt 0.248030 0.346534
vt 1.000000 0.507702
vt 1.000000 0.338684
vt 0.186966 0.005277
vt 0.187008 0.000009
vt 0.125902 0.005274
vt 0.125944 0.000006
vt 0.564895 0.687755
vt 0.564887 0.693012
vt 0.625962 0.687755
vt 0.625954 0.693013
vt 0.496155 0.999971
vt 0.435088 0.999978
vt 0.435108 0.995363
vt 0.496174 0.995356
vt 0.374022 0.999986
vt 0.374041 0.995370
vt 0.251938 0.000000
vt 0.313000 0.000000
vt 0.374063 0.000001
vt 0.374012 0.005253
vt 0.500003 0.175878
vt 0.503828 0.346499
vt 0.500003 0.346506
vt 0.496187 0.693015
vt 0.435125 0.693014
vt 0.435074 0.687766
vt 0.374063 0.693014
vt 0.374012 0.687765
vt 0.500003 0.175880
vt 0.496136 0.175881
vt 0.500003 0.346508
vt 0.496136 0.346510
vt 0.437595 0.924787
vt 0.496174 0.919770
vt 0.429539 0.854178
vt 0.496174 0.844185
vt 0.251907 0.919799
vt 0.312640 0.923411
vt 0.382453 0.924414
vt 0.251907 0.844214
vt 0.312456 0.845056
vt 0.378237 0.843653
vt 0.251907 0.768629
vt 0.315282 0.796674
vt 0.375576 0.786730
vt 0.251907 0.693043
vt 0.312974 0.693036
vt 0.374041 0.693029
vt 0.430542 0.157958
vt 0.386247 0.179390
vt 0.427671 0.507587
vt 0.431316 0.369875
vt 0.399770 0.505491
vt 0.362756 0.340877
vt 0.307566 0.555257
vt 0.308244 0.350189
vt 0.251888 0.517137
vt 0.251888 0.346508
vt 0.748097 0.175871
vt 0.701335 0.165598
vt 0.639557 0.182452
vt 0.665659 0.502948
vt 0.748097 0.517128
vt 0.683456 0.343782
vt 0.748097 0.346500
vt 0.625808 0.515874
vt 0.611969 0.322602
vt 0.584451 0.542737
vt 0.562559 0.338781
vt 0.003775 0.517149
vt 0.055390 0.535637
vt 0.125899 0.517799
vt 0.060824 0.181105
vt 0.003775 0.175895
vt 0.057359 0.351104
vt 0.003775 0.346522
vt 0.125912 0.175890
vt 0.144478 0.316409
vt 0.160235 0.196015
vt 0.191428 0.322703
vt 0.561067 0.693015
vt 0.547145 0.791981
vt 0.500003 0.768617
vt 0.500003 0.693015
vt 0.573972 0.853706
vt 0.500003 0.844218
vt 0.744259 0.693015
vt 0.744259 0.768616
vt 0.695297 0.787228
vt 0.683195 0.693015
vt 0.603496 0.767222
vt 0.622131 0.693015
vt 0.744259 0.844217
vt 0.683434 0.854718
vt 0.646311 0.857465
vt 0.744259 0.919819
vt 0.678938 0.950112
vt 0.636535 0.894059
vt 0.744259 0.995420
vt 0.683195 0.995421
vt 0.622131 0.995421
vn -0.0600 0.1249 0.9903
vn -0.0156 0.4621 0.8867
vn -0.4064 0.3859 0.8282
vn -0.4450 0.0405 0.8946
vn 0.9908 0.1254 0.0502
vn 0.8070 0.5904 -0.0121
vn 0.8453 0.4460 0.2942
vn 0.9106 0.0386 0.4113
vn 0.0971 0.9948 -0.0312
vn -0.3997 0.9162 -0.0277
vn -0.3762 0.8738 0.3080
vn 0.0448 0.9243 0.3789
vn -1.0000 -0.0038 0.0036
vn -0.9106 0.4131 -0.0056
vn -0.8815 0.3474 -0.3197
vn -0.9242 -0.0169 -0.3816
vn 0.0034 0.0327 -0.9995
vn 0.0132 0.3155 -0.9488
vn 0.4194 0.2903 -0.8601
vn 0.4584 0.0702 -0.8859
vn -0.3581 -0.8753 0.3249
vn -0.3770 -0.3770 0.8460
vn -0.8654 -0.3760 0.3313
vn -0.9207 0.2713 0.2804
vn -0.3378 -0.8859 -0.3178
vn -0.8940 -0.3211 -0.3123
vn -0.3721 -0.3721 -0.8503
vn -0.4663 0.8134 -0.3478
vn -0.4019 0.3192 -0.8582
vn 0.3001 -0.9037 0.3055
vn 0.8846 -0.3403 0.3187
vn 0.3660 -0.3660 0.8556
vn 0.3697 0.8867 0.2776
vn 0.3977 0.3868 0.8319
vn 0.3874 -0.8586 -0.3356
vn 0.3350 -0.3934 -0.8561
vn 0.8687 -0.3881 -0.3076
vn 0.3878 0.8615 -0.3276
vn 0.8800 0.3040 -0.3649
vn -0.3917 -0.9200 -0.0092
vn -0.8867 -0.4621 0.0151
vn -0.9292 0.0102 0.3695
vn -0.4303 0.9026 -0.0106
vn -0.4427 0.0561 -0.8949
vn -0.9348 0.0529 -0.3511
vn -0.0095 -0.9343 -0.3562
vn 0.0742 -0.3713 -0.9255
vn 0.0123 0.9167 -0.3994
vn 0.9335 -0.0004 -0.3585
vn 0.4307 -0.0304 -0.9020
vn 0.4561 -0.8899 0.0020
vn 0.9298 -0.3671 0.0237
vn 0.3851 0.9228 -0.0096
vn 0.4203 -0.0007 0.9074
vn 0.9347 -0.0003 0.3555
vn -0.0484 -0.9514 0.3041
vn -0.0251 -0.3984 0.9168
vn -0.0711 -0.9974 0.0010
vn 0.3037 -0.9528 0.0020
vn 0.1274 -0.9918 -0.0056
vn 0.0579 -0.9326 0.3562
vn 0.1442 -0.9895 0.0110
vn 0.0729 -0.9481 0.3095
vn -0.1027 -0.9947 -0.0041
vn -0.3622 -0.9321 0.0045
vn 0.0603 -0.9981 0.0077
vn -0.3634 -0.9316 -0.0069
vn -0.0546 -0.9190 -0.3904
vn -0.1297 -0.9911 -0.0291
vn -0.1198 -0.9916 0.0473
vn 0.0136 -0.9143 -0.4049
vn 0.0296 -0.9995 -0.0126
vn 0.0125 -0.9953 0.0960
vn 0.3807 -0.9238 0.0405
vn -0.1035 0.9177 0.3836
vn -0.0119 0.4384 0.8987
vn -0.0338 0.9674 0.2510
vn -0.0304 0.5406 0.8407
vn 0.0394 -0.4081 0.9121
vn 0.0076 -0.3815 0.9243
vn 0.3822 0.0444 0.9230
vn 0.4039 0.0248 0.9145
vn 0.9251 -0.0499 0.3764
vn 0.4680 0.8837 0.0022
vn 0.8982 0.4384 -0.0316
vn 0.4469 0.8939 0.0350
vn 0.8139 0.5810 0.0034
vn 0.9460 -0.3234 -0.0209
vn 0.9538 -0.3004 0.0074
vn 0.9217 0.0318 -0.3867
vn 0.9185 0.1273 -0.3744
vn 0.4635 0.1404 -0.8749
vn -0.1046 0.9137 -0.3926
vn -0.0477 0.3477 -0.9364
vn -0.0111 0.9200 -0.3916
vn -0.0102 0.2867 -0.9579
vn -0.0960 -0.3373 -0.9365
vn 0.0226 -0.2822 -0.9591
vn -0.3519 -0.0156 -0.9359
vn -0.4417 0.0632 -0.8949
vn -0.9559 -0.0253 -0.2927
vn -0.9560 0.2921 -0.0262
vn -0.3616 0.9323 -0.0003
vn -0.9223 0.3861 0.0130
vn -0.4718 0.0041 0.8816
vn -0.9058 -0.0461 0.4211
vn -0.5626 0.0334 0.8260
vn -0.9405 0.0836 0.3294
vn -0.9275 -0.3733 -0.0169
vn -0.8995 -0.4361 -0.0267
vn -0.1815 -0.0432 -0.9824
vn -0.1698 0.0083 -0.9854
vn 0.1143 0.0298 -0.9930
vn -0.0489 -0.0008 -0.9988
vn 0.0840 0.1160 -0.9897
vn -0.1108 0.0808 -0.9905
vn 0.0686 0.0710 -0.9951
vn -0.0821 0.0849 -0.9930
vn -0.9998 0.0205 -0.0080
vn -0.9995 -0.0047 -0.0325
vn -0.9922 -0.1217 0.0258
vn -0.9960 -0.0554 -0.0699
vn -0.9938 0.1096 0.0148
vn -0.9941 0.0957 -0.0505
vn -0.9982 0.0471 -0.0364
vn -0.9975 0.0666 0.0211
vn -0.0898 0.9959 0.0103
vn -0.0193 0.9997 0.0128
vn -0.0424 0.9991 -0.0085
vn -0.0602 0.9956 0.0717
vn -0.0799 0.9968 0.0038
vn -0.0442 0.9965 0.0704
vn -0.0127 0.9998 -0.0168
vn 0.0515 0.9984 0.0219
vn 0.9998 -0.0133 -0.0173
vn 0.9839 -0.1760 0.0295
vn 0.9991 -0.0273 0.0303
vn 0.9993 -0.0370 0.0049
vn 0.9973 -0.0623 -0.0371
vn 0.9776 -0.2094 -0.0180
vn 0.9955 0.0218 -0.0922
vn 0.9899 0.1400 -0.0235
vn -0.0587 -0.0629 0.9963
vn -0.0293 -0.0786 0.9965
vn -0.0251 0.0025 0.9997
vn 0.0981 -0.0694 0.9927
vn 0.0497 0.0002 0.9987
vn 0.1289 -0.0804 0.9884
vn 0.0798 0.0906 0.9927
vn 0.1299 0.1031 0.9861
usemtl None
s 1
f 150/1/1 94/2/2 4/3/3 33/4/4
f 141/5/5 76/6/6 18/7/7 84/8/8
f 132/9/9 37/10/10 5/11/11 93/12/12
f 123/13/13 40/14/14 12/15/15 48/16/16
f 114/17/17 58/18/18 24/19/19 66/20/20
f 1/21/21 2/22/22 3/23/23
f 4/24/3 5/11/11 6/25/24
f 7/26/25 8/27/26 9/28/27
f 10/29/28 11/30/29 12/31/15
f 13/32/30 14/33/31 15/34/32
f 16/35/33 17/36/34 18/7/7
f 19/37/35 20/38/36 21/39/37
f 22/40/38 23/41/39 24/42/19
f 27/43/40 1/44/21 3/45/23 28/46/41
f 33/47/4 4/48/3 6/49/24 34/50/42
f 39/51/43 10/29/28 12/31/15 40/52/14
f 45/53/44 9/28/27 8/27/26 46/54/45
f 51/55/46 7/56/25 9/57/27 52/58/47
f 57/59/48 22/60/38 24/61/19 58/62/18
f 63/63/49 21/39/37 20/38/36 64/64/50
f 69/65/51 19/66/35 21/67/37 70/68/52
f 75/69/53 16/35/33 18/7/7 76/6/6
f 81/70/54 15/71/32 14/72/31 82/73/55
f 87/74/56 13/32/30 15/34/32 88/75/57
f 93/12/12 5/11/11 4/24/3 94/76/2
f 105/77/58 67/78/59 13/32/30 87/74/56
f 27/79/40 99/80/60 85/81/61 1/21/21
f 99/80/60 102/82/62 86/83/63 85/81/61
f 102/82/62 105/77/58 87/74/56 86/83/63
f 7/84/25 51/85/46 97/86/64 25/87/65
f 25/87/65 97/86/64 98/88/66 26/89/67
f 26/89/67 98/88/66 99/80/60 27/79/40
f 51/85/46 50/90/68 100/91/69 97/86/64
f 97/86/64 100/91/69 101/92/70 98/88/66
f 98/88/66 101/92/70 102/82/62 99/80/60
f 50/90/68 49/93/71 103/94/72 100/91/69
f 100/91/69 103/94/72 104/95/73 101/92/70
f 101/92/70 104/95/73 105/77/58 102/82/62
f 49/93/71 19/66/35 69/65/51 103/94/72
f 103/94/72 69/65/51 68/96/74 104/95/73
f 104/95/73 68/96/74 67/78/59 105/77/58
f 16/97/33 91/98/75 96/99/76 17/100/34
f 91/98/75 92/101/77 95/102/78 96/99/76
f 92/101/77 93/12/12 94/76/2 95/102/78
f 1/21/21 85/81/61 90/103/79 2/22/22
f 85/81/61 86/83/63 89/104/80 90/103/79
f 86/83/63 87/74/56 88/75/57 89/104/80
f 17/36/34 79/105/81 84/8/8 18/7/7
f 79/105/81 80/106/82 83/107/83 84/8/8
f 80/106/82 81/70/54 82/73/55 83/107/83
f 22/40/38 73/108/84 78/109/85 23/41/39
f 73/108/84 74/110/86 77/111/87 78/109/85
f 74/110/86 75/69/53 76/6/6 77/111/87
f 13/32/30 67/78/59 72/112/88 14/33/31
f 67/78/59 68/96/74 71/113/89 72/112/88
f 68/96/74 69/65/51 70/68/52 71/113/89
f 23/41/39 61/114/90 66/115/20 24/42/19
f 61/114/90 62/116/91 65/117/92 66/115/20
f 62/116/91 63/63/49 64/64/50 65/117/92
f 10/29/28 55/118/93 60/119/94 11/30/29
f 55/118/93 56/120/95 59/121/96 60/119/94
f 56/120/95 57/59/48 58/62/18 59/121/96
f 19/122/35 49/123/71 54/124/97 20/125/36
f 49/123/71 50/126/68 53/127/98 54/124/97
f 50/126/68 51/55/46 52/58/47 53/127/98
f 11/128/29 43/129/99 48/16/16 12/15/15
f 43/129/99 44/130/100 47/131/101 48/16/16
f 44/130/100 45/53/44 46/54/45 47/131/101
f 5/11/11 37/10/10 42/132/102 6/25/24
f 37/10/10 38/133/103 41/134/104 42/132/102
f 38/133/103 39/51/43 40/52/14 41/134/104
f 2/135/22 31/136/105 36/137/106 3/45/23
f 31/136/105 32/138/107 35/139/108 36/137/106
f 32/138/107 33/47/4 34/50/42 35/139/108
f 7/26/25 25/140/65 30/141/109 8/27/26
f 25/140/65 26/142/67 29/143/110 30/141/109
f 26/142/67 27/43/40 28/46/41 29/143/110
f 54/124/97 108/144/111 64/145/50 20/125/36
f 108/144/111 111/146/112 65/147/92 64/145/50
f 111/146/112 114/17/17 66/20/20 65/147/92
f 9/57/27 45/148/44 106/149/113 52/58/47
f 52/58/47 106/149/113 107/150/114 53/127/98
f 53/127/98 107/150/114 108/144/111 54/124/97
f 45/148/44 44/151/100 109/152/115 106/149/113
f 106/149/113 109/152/115 110/153/116 107/150/114
f 107/150/114 110/153/116 111/146/112 108/144/111
f 44/151/100 43/154/99 112/155/117 109/152/115
f 109/152/115 112/155/117 113/156/118 110/153/116
f 110/153/116 113/156/118 114/17/17 111/146/112
f 43/154/99 11/157/29 60/158/94 112/155/117
f 112/155/117 60/158/94 59/159/96 113/156/118
f 113/156/118 59/159/96 58/18/18 114/17/17
f 30/141/109 117/160/119 46/54/45 8/27/26
f 117/160/119 120/161/120 47/131/101 46/54/45
f 120/161/120 123/13/13 48/16/16 47/131/101
f 3/45/23 36/137/106 115/162/121 28/46/41
f 28/46/41 115/162/121 116/163/122 29/143/110
f 29/143/110 116/163/122 117/160/119 30/141/109
f 36/137/106 35/139/108 118/164/123 115/162/121
f 115/162/121 118/164/123 119/165/124 116/163/122
f 116/163/122 119/165/124 120/161/120 117/160/119
f 35/139/108 34/50/42 121/166/125 118/164/123
f 118/164/123 121/166/125 122/167/126 119/165/124
f 119/165/124 122/167/126 123/13/13 120/161/120
f 34/50/42 6/49/24 42/168/102 121/166/125
f 121/166/125 42/168/102 41/169/104 122/167/126
f 122/167/126 41/169/104 40/14/14 123/13/13
f 75/170/53 126/171/127 91/98/75 16/97/33
f 126/171/127 129/172/128 92/101/77 91/98/75
f 129/172/128 132/9/9 93/12/12 92/101/77
f 22/60/38 57/59/48 124/173/129 73/174/84
f 73/174/84 124/173/129 125/175/130 74/176/86
f 74/176/86 125/175/130 126/171/127 75/170/53
f 57/59/48 56/120/95 127/177/131 124/173/129
f 124/173/129 127/177/131 128/178/132 125/175/130
f 125/175/130 128/178/132 129/172/128 126/171/127
f 56/120/95 55/118/93 130/179/133 127/177/131
f 127/177/131 130/179/133 131/180/134 128/178/132
f 128/178/132 131/180/134 132/9/9 129/172/128
f 55/118/93 10/29/28 39/51/43 130/179/133
f 130/179/133 39/51/43 38/133/103 131/180/134
f 131/180/134 38/133/103 37/10/10 132/9/9
f 72/181/88 135/182/135 82/73/55 14/72/31
f 135/182/135 138/183/136 83/107/83 82/73/55
f 138/183/136 141/5/5 84/8/8 83/107/83
f 21/39/37 63/63/49 133/184/137 70/185/52
f 70/185/52 133/184/137 134/186/138 71/187/89
f 71/187/89 134/186/138 135/182/135 72/181/88
f 63/63/49 62/116/91 136/188/139 133/184/137
f 133/184/137 136/188/139 137/189/140 134/186/138
f 134/186/138 137/189/140 138/183/136 135/182/135
f 62/116/91 61/114/90 139/190/141 136/188/139
f 136/188/139 139/190/141 140/191/142 137/189/140
f 137/189/140 140/191/142 141/5/5 138/183/136
f 61/114/90 23/41/39 78/109/85 139/190/141
f 139/190/141 78/109/85 77/111/87 140/191/142
f 140/191/142 77/111/87 76/6/6 141/5/5
f 90/192/79 144/193/143 31/194/105 2/195/22
f 144/193/143 147/196/144 32/197/107 31/194/105
f 147/196/144 150/1/1 33/4/4 32/197/107
f 15/198/32 81/199/54 142/200/145 88/201/57
f 88/201/57 142/200/145 143/202/146 89/203/80
f 89/203/80 143/202/146 144/193/143 90/192/79
f 81/199/54 80/204/82 145/205/147 142/200/145
f 142/200/145 145/205/147 146/206/148 143/202/146
f 143/202/146 146/206/148 147/196/144 144/193/143
f 80/204/82 79/207/81 148/208/149 145/205/147
f 145/205/147 148/208/149 149/209/150 146/206/148
f 146/206/148 149/209/150 150/1/1 147/196/144
f 79/207/81 17/210/34 96/211/76 148/208/149
f 148/208/149 96/211/76 95/212/78 149/209/150
f 149/209/150 95/212/78 94/2/2 150/1/1
