# Blender v2.79 (sub 0) OBJ File: 'Brick_1x1_Normal.blend'
# www.blender.org
mtllib Brick_1x1_Normal.mtl
o Cube_Cube.001
v -0.285000 -0.300000 0.285000
v -0.285000 -0.285000 0.300000
v -0.300000 -0.285000 0.285000
v -0.285000 0.285000 0.300000
v -0.285000 0.300000 0.285000
v -0.300000 0.285000 0.285000
v -0.285000 -0.300000 -0.285000
v -0.300000 -0.285000 -0.285000
v -0.285000 -0.285000 -0.300000
v -0.285000 0.300000 -0.285000
v -0.285000 0.285000 -0.300000
v -0.300000 0.285000 -0.285000
v 0.285000 -0.300000 0.285000
v 0.300000 -0.285000 0.285000
v 0.285000 -0.285000 0.300000
v 0.285000 0.300000 0.285000
v 0.285000 0.285000 0.300000
v 0.300000 0.285000 0.285000
v 0.285000 -0.300000 -0.285000
v 0.285000 -0.285000 -0.300000
v 0.300000 -0.285000 -0.285000
v 0.285000 0.300000 -0.285000
v 0.300000 0.285000 -0.285000
v 0.285000 0.285000 -0.300000
v -0.285000 -0.300000 -0.095000
v -0.285000 -0.300000 0.095000
v -0.300000 -0.285000 0.095000
v -0.300000 -0.285000 -0.095000
v -0.285000 -0.095000 0.300000
v -0.285000 0.095000 0.300000
v -0.300000 0.095000 0.285000
v -0.300000 -0.095000 0.285000
v -0.285000 0.300000 0.095000
v -0.285000 0.300000 -0.095000
v -0.300000 0.285000 -0.095000
v -0.300000 0.285000 0.095000
v -0.285000 0.095000 -0.300000
v -0.285000 -0.095000 -0.300000
v -0.300000 -0.095000 -0.285000
v -0.300000 0.095000 -0.285000
v 0.095000 -0.300000 -0.285000
v -0.095000 -0.300000 -0.285000
v -0.095000 -0.285000 -0.300000
v 0.095000 -0.285000 -0.300000
v -0.095000 0.300000 -0.285000
v 0.095000 0.300000 -0.285000
v 0.095000 0.285000 -0.300000
v -0.095000 0.285000 -0.300000
v 0.300000 0.095000 -0.285000
v 0.300000 -0.095000 -0.285000
v 0.285000 -0.095000 -0.300000
v 0.285000 0.095000 -0.300000
v 0.285000 -0.300000 0.095000
v 0.285000 -0.300000 -0.095000
v 0.300000 -0.285000 -0.095000
v 0.300000 -0.285000 0.095000
v 0.285000 0.300000 -0.095000
v 0.285000 0.300000 0.095000
v 0.300000 0.285000 0.095000
v 0.300000 0.285000 -0.095000
v 0.285000 0.095000 0.300000
v 0.285000 -0.095000 0.300000
v 0.300000 -0.095000 0.285000
v 0.300000 0.095000 0.285000
v -0.095000 -0.300000 0.285000
v 0.095000 -0.300000 0.285000
v 0.095000 -0.285000 0.300000
v -0.095000 -0.285000 0.300000
v 0.095000 0.300000 0.285000
v -0.095000 0.300000 0.285000
v -0.095000 0.285000 0.300000
v 0.095000 0.285000 0.300000
v -0.093736 -0.300227 -0.092857
v -0.075016 -0.297360 0.094778
v 0.095007 -0.288960 -0.092809
v 0.076208 -0.306540 0.104330
v -0.091286 -0.101933 -0.298815
v 0.096892 -0.093440 -0.308881
v -0.119215 0.060205 -0.276664
v 0.093167 0.082513 -0.299091
v -0.258911 -0.112871 0.128524
v -0.271929 -0.102633 -0.074422
v -0.265948 0.072366 0.103184
v -0.299661 0.094437 -0.094698
v 0.093239 0.303516 -0.100798
v 0.056620 0.294302 0.095227
v -0.105029 0.297614 -0.079189
v -0.081367 0.323168 0.127469
v 0.297836 -0.076489 -0.090430
v 0.298040 -0.088188 0.100639
v 0.277826 0.097936 -0.098513
v 0.299556 0.109366 0.087207
v 0.066965 -0.085421 0.313144
v -0.074105 -0.113143 0.287000
v 0.095959 0.101898 0.315346
v -0.122900 0.103619 0.272317
vt 0.248028 0.271213
vt 0.359501 0.253305
vt 0.359501 0.375152
vt 0.242742 0.375152
vt 0.826038 0.604238
vt 0.902550 0.609236
vt 0.902550 0.731083
vt 0.819988 0.731083
vt 0.625838 0.658917
vt 0.724391 0.638094
vt 0.724391 0.759942
vt 0.641829 0.759942
vt 0.082953 0.506822
vt 0.000000 0.506628
vt 0.000000 0.384780
vt 0.082561 0.384780
vt 0.495830 0.245280
vt 0.494705 0.375133
vt 0.377946 0.375132
vt 0.377946 0.253285
vt 0.985759 0.375161
vt 0.992277 0.365542
vt 0.998795 0.375161
vt 0.730909 0.769561
vt 0.737427 0.759942
vt 0.985759 0.740703
vt 0.998795 0.740703
vt 0.992277 0.750322
vt 0.724391 0.394400
vt 0.730909 0.384781
vt 0.737427 0.394400
vt 0.612802 0.759942
vt 0.625838 0.759942
vt 0.619320 0.769561
vt 0.506197 0.394400
vt 0.512715 0.384781
vt 0.519233 0.394400
vt 0.612802 0.394400
vt 0.619320 0.384781
vt 0.625838 0.394400
vt 0.506197 0.759941
vt 0.519233 0.759941
vt 0.512715 0.769561
vt 0.985759 0.497008
vt 0.998795 0.497008
vt 0.359496 0.384780
vt 0.242736 0.384780
vt 0.724391 0.516247
vt 0.737427 0.516247
vt 0.728223 0.131440
vt 0.728223 0.009594
vt 0.737427 0.009621
vt 0.737427 0.131468
vt 0.611450 0.000001
vt 0.728209 0.000002
vt 0.611464 0.009593
vt 0.494691 0.384780
vt 0.377931 0.384779
vt 0.368714 0.131466
vt 0.368713 0.009619
vt 0.377946 0.009592
vt 0.377946 0.131439
vt 0.612802 0.516247
vt 0.625838 0.516247
vt 0.506197 0.516247
vt 0.519233 0.516247
vt 0.125983 0.009611
vt 0.009223 0.009611
vt 0.009218 0.000000
vt 0.125977 0.000000
vt 0.000000 0.131467
vt 0.000000 0.009619
vt 0.009223 0.131458
vt 0.368713 0.253314
vt 0.368713 0.375161
vt 0.519233 0.644078
vt 0.612802 0.638094
vt 0.530241 0.759942
vt 0.907350 0.121847
vt 0.814957 0.121989
vt 0.824788 0.000000
vt 0.907350 0.000000
vt 0.526770 0.769561
vt 0.596471 0.775687
vt 0.601795 0.891551
vt 0.519233 0.891551
vt 0.903197 0.740703
vt 0.902550 0.617482
vt 0.985759 0.618855
vt 0.907350 0.243694
vt 0.824338 0.242320
vt 0.824788 0.365542
vt 0.742227 0.365542
vt 0.737427 0.242289
vt 0.753235 0.115864
vt 0.082561 1.000000
vt 0.000000 1.000000
vt 0.000000 0.878153
vt 0.087356 0.876748
vt 0.000000 0.756306
vt 0.087885 0.750322
vt 0.368713 0.009620
vt 0.368713 0.131467
vt 0.359501 0.131458
vt 0.359501 0.009611
vt 0.000000 0.375161
vt 0.000000 0.253314
vt 0.009223 0.253305
vt 0.009223 0.375152
vt 0.242742 0.009611
vt 0.242736 0.000000
vt 0.359496 0.000000
vt 0.506197 0.638094
vt 0.519233 0.638094
vt 0.625838 0.638094
vt 0.368714 0.375159
vt 0.368714 0.253313
vt 0.728209 0.384781
vt 0.611450 0.384780
vt 0.611464 0.375133
vt 0.728223 0.375134
vt 0.377931 0.000000
vt 0.494691 0.000001
vt 0.494705 0.009593
vt 0.728223 0.253287
vt 0.737427 0.253314
vt 0.737427 0.375161
vt 0.737427 0.638094
vt 0.125983 0.375152
vt 0.125977 0.384780
vt 0.009218 0.384780
vt 0.998795 0.618855
vt 0.493550 0.132423
vt 0.609181 0.126996
vt 0.626322 0.231015
vt 1.000000 0.121847
vt 0.908558 0.135044
vt 0.917439 0.000000
vt 1.000000 0.000000
vt 0.180637 0.519824
vt 0.165123 0.384780
vt 1.000000 0.365541
vt 0.917439 0.365542
vt 0.907350 0.265193
vt 1.000000 0.243694
vt 0.165123 0.750322
vt 0.082561 0.750322
vt 0.107194 0.633724
vt 0.190743 0.649974
vt 0.000000 0.750322
vt 0.000000 0.628475
vt 0.737427 0.856648
vt 0.839141 0.856794
vt 0.819988 0.978496
vt 0.737427 0.978496
vt 0.160577 0.872161
vt 0.087885 0.852217
vt 0.091092 0.751155
vt 0.173650 0.750322
vt 0.423636 0.759941
vt 0.421343 0.641812
vt 0.737427 0.734801
vt 0.819226 0.731083
vt 0.261606 0.882309
vt 0.179045 0.882309
vt 0.173650 0.750322
vt 0.262368 0.764180
vt 0.173650 0.997746
vt 0.089936 0.984733
vt 0.344901 0.882354
vt 0.262368 0.880093
vt 0.265433 0.758287
vt 0.344901 0.750322
vt 0.647224 0.526387
vt 0.366776 0.506628
vt 0.280403 0.503011
vt 0.284215 0.384780
vt 0.366776 0.384780
vt 0.739535 0.612853
vt 0.737427 0.731083
vt 0.366776 0.750322
vt 0.284215 0.750322
vt 0.275231 0.625544
vt 0.366776 0.628475
vt 0.201654 0.750322
vt 0.190743 0.630728
vt 0.195218 0.511626
vt 0.819988 0.365542
vt 0.902550 0.365542
vt 0.902550 0.487389
vt 0.811629 0.485136
vt 0.114829 0.239912
vt 0.131874 0.149429
vt 0.246987 0.130835
vn -0.0116 -0.0103 0.9999
vn -0.0116 0.3601 0.9328
vn -0.3225 0.3225 0.8900
vn -0.3385 -0.0074 0.9409
vn 0.9995 -0.0058 -0.0313
vn 0.9293 0.3690 -0.0151
vn 0.8758 0.3413 0.3413
vn 0.9246 -0.0015 0.3808
vn 0.0154 0.9998 0.0081
vn -0.4080 0.9130 -0.0027
vn -0.3570 0.8632 0.3570
vn 0.0052 0.9128 0.4082
vn -0.9963 -0.0572 0.0641
vn -0.9313 0.3636 0.0225
vn -0.8757 0.3413 -0.3413
vn -0.9301 -0.0186 -0.3667
vn -0.0302 0.0124 -0.9995
vn -0.0149 0.3700 -0.9289
vn 0.3410 0.3410 -0.8760
vn 0.3866 0.0063 -0.9222
vn -0.3400 -0.8768 0.3400
vn -0.3334 -0.3334 0.8818
vn -0.8972 -0.3122 0.3122
vn -0.8909 0.3211 0.3211
vn -0.3417 -0.8755 -0.3417
vn -0.8884 -0.3246 -0.3246
vn -0.3408 -0.3408 -0.8762
vn -0.3401 0.8767 -0.3401
vn -0.3273 0.3273 -0.8863
vn 0.3456 -0.8724 0.3456
vn 0.8765 -0.3403 0.3403
vn 0.3491 -0.3491 0.8696
vn 0.3383 0.8781 0.3383
vn 0.3515 0.3515 0.8677
vn 0.3347 -0.8809 -0.3347
vn 0.3472 -0.3472 -0.8711
vn 0.8766 -0.3403 -0.3403
vn 0.3438 0.8738 -0.3438
vn 0.8863 0.3274 -0.3274
vn -0.3798 -0.9250 0.0002
vn -0.9509 -0.3088 -0.0187
vn -0.9483 -0.0343 0.3153
vn -0.3914 0.9201 -0.0139
vn -0.3642 0.0200 -0.9311
vn -0.9366 0.0000 -0.3505
vn 0.0078 -0.9264 -0.3764
vn -0.0061 -0.3865 -0.9222
vn -0.0016 0.9226 -0.3856
vn 0.9295 0.0159 -0.3683
vn 0.3928 0.0009 -0.9196
vn 0.3732 -0.9277 -0.0045
vn 0.9254 -0.3791 0.0014
vn 0.3783 0.9257 0.0026
vn 0.4057 -0.0115 0.9139
vn 0.9250 0.0003 0.3800
vn -0.0020 -0.9212 0.3891
vn -0.0101 -0.3913 0.9202
vn -0.0045 -0.9999 -0.0133
vn 0.3836 -0.9235 -0.0084
vn -0.0020 -0.9999 -0.0077
vn -0.0049 -0.9236 0.3833
vn 0.0106 -0.9999 -0.0001
vn -0.3815 -0.9244 0.0018
vn 0.0002 -0.9292 -0.3696
vn -0.0014 -1.0000 -0.0070
vn 0.0175 0.9214 0.3883
vn -0.0173 0.3868 0.9220
vn -0.0098 -0.3750 0.9270
vn 0.4083 0.0077 0.9128
vn 0.3835 0.9235 0.0039
vn 0.9348 0.3552 0.0005
vn 0.9253 -0.3791 -0.0014
vn 0.9348 -0.0005 -0.3551
vn -0.0027 0.9241 -0.3821
vn -0.0002 0.3568 -0.9341
vn -0.0008 -0.3927 -0.9196
vn -0.3520 -0.0021 -0.9360
vn -0.9390 0.3440 0.0000
vn -0.3485 0.0230 0.9370
vn -0.9528 0.0224 0.3026
vn -0.9453 -0.3248 0.0309
vn -0.0174 0.0179 -0.9997
vn -0.0131 0.0337 -0.9993
vn 0.0051 0.0162 -0.9998
vn -0.9969 0.0290 0.0728
vn -0.9969 0.0536 -0.0581
vn -0.9973 -0.0699 -0.0235
vn 0.0378 0.9993 0.0008
vn 0.0093 0.9999 -0.0047
vn 0.0004 0.9996 -0.0262
vn 0.9998 0.0134 -0.0164
vn 0.9995 0.0305 0.0013
vn 1.0000 -0.0035 0.0026
vn -0.0419 0.0231 0.9988
vn -0.0541 -0.0036 0.9985
vn -0.0401 0.0060 0.9992
usemtl None
s 1
f 96/1/1 71/2/2 4/3/3 30/4/4
f 92/5/5 59/6/6 18/7/7 64/8/8
f 88/9/9 33/10/10 5/11/11 70/12/12
f 84/13/13 35/14/14 12/15/15 40/16/16
f 80/17/17 47/18/18 24/19/19 52/20/20
f 1/21/21 2/22/22 3/23/23
f 4/24/3 5/11/11 6/25/24
f 7/26/25 8/27/26 9/28/27
f 10/29/28 11/30/29 12/31/15
f 13/32/30 14/33/31 15/34/32
f 16/35/33 17/36/34 18/37/7
f 19/38/35 20/39/36 21/40/37
f 22/41/38 23/42/39 24/43/19
f 26/44/40 1/21/21 3/23/23 27/45/41
f 30/4/4 4/3/3 6/46/24 31/47/42
f 34/48/43 10/29/28 12/31/15 35/49/14
f 38/50/44 9/51/27 8/52/26 39/53/45
f 42/54/46 7/55/25 9/51/27 43/56/47
f 46/57/48 22/58/38 24/19/19 47/18/18
f 50/59/49 21/60/37 20/61/36 51/62/50
f 54/63/51 19/38/35 21/40/37 55/64/52
f 58/65/53 16/35/33 18/37/7 59/66/6
f 62/67/54 15/68/32 14/69/31 63/70/55
f 66/71/56 13/72/30 15/68/32 67/73/57
f 70/74/12 5/75/11 4/3/3 71/2/2
f 76/76/58 53/77/59 13/32/30 66/78/56
f 26/79/40 74/80/60 65/81/61 1/82/21
f 74/83/60 76/84/58 66/85/56 65/86/61
f 7/26/25 42/87/46 73/88/62 25/89/63
f 25/90/63 73/91/62 74/80/60 26/79/40
f 42/92/46 41/93/64 75/94/65 73/91/62
f 73/91/62 75/94/65 76/95/58 74/80/60
f 41/96/64 19/97/35 54/98/51 75/99/65
f 75/99/65 54/98/51 53/100/59 76/101/58
f 16/102/33 69/103/66 72/104/67 17/105/34
f 69/103/66 70/74/12 71/2/2 72/104/67
f 1/106/21 65/107/61 68/108/68 2/109/22
f 65/107/61 66/71/56 67/73/57 68/108/68
f 17/105/34 61/110/69 64/111/8 18/112/7
f 61/110/69 62/67/54 63/70/55 64/111/8
f 22/41/38 57/113/70 60/114/71 23/42/39
f 57/113/70 58/65/53 59/66/6 60/114/71
f 13/32/30 53/77/59 56/115/72 14/33/31
f 53/77/59 54/63/51 55/64/52 56/115/72
f 23/116/39 49/117/73 52/20/20 24/19/19
f 49/117/73 50/59/49 51/62/50 52/20/20
f 10/118/28 45/119/74 48/120/75 11/121/29
f 45/119/74 46/57/48 47/18/18 48/120/75
f 19/122/35 41/123/64 44/124/76 20/61/36
f 41/123/64 42/54/46 43/56/47 44/124/76
f 11/121/29 37/125/77 40/126/16 12/127/15
f 37/125/77 38/50/44 39/53/45 40/126/16
f 5/11/11 33/10/10 36/128/78 6/25/24
f 33/10/10 34/48/43 35/49/14 36/128/78
f 2/109/22 29/129/79 32/130/80 3/131/23
f 29/129/79 30/4/4 31/47/42 32/130/80
f 7/26/25 25/89/63 28/132/81 8/27/26
f 25/89/63 26/44/40 27/45/41 28/132/81
f 44/124/76 78/133/82 51/62/50 20/61/36
f 78/133/82 80/17/17 52/20/20 51/62/50
f 9/51/27 38/50/44 77/134/83 43/56/47
f 43/56/47 77/134/83 78/133/82 44/124/76
f 38/50/44 37/125/77 79/135/84 77/134/83
f 77/134/83 79/135/84 80/17/17 78/133/82
f 37/125/77 11/121/29 48/120/75 79/135/84
f 79/135/84 48/120/75 47/18/18 80/17/17
f 28/136/81 82/137/85 39/138/45 8/139/26
f 82/140/85 84/13/13 40/16/16 39/141/45
f 3/142/23 32/143/80 81/144/86 27/145/41
f 27/145/41 81/144/86 82/137/85 28/136/81
f 32/146/80 31/147/42 83/148/87 81/149/86
f 81/149/86 83/148/87 84/13/13 82/140/85
f 31/147/42 6/150/24 36/151/78 83/148/87
f 83/148/87 36/151/78 35/14/14 84/13/13
f 58/152/53 86/153/88 69/154/66 16/155/33
f 86/156/88 88/157/9 70/158/12 69/159/66
f 22/41/38 46/160/48 85/161/89 57/113/70
f 57/162/70 85/163/89 86/153/88 58/152/53
f 46/164/48 45/165/74 87/166/90 85/167/89
f 85/168/89 87/169/90 88/157/9 86/156/88
f 45/170/74 10/171/28 34/172/43 87/173/90
f 87/174/90 34/48/43 33/10/10 88/9/9
f 56/175/72 90/176/91 63/177/55 14/178/31
f 90/179/91 92/5/5 64/8/8 63/180/55
f 21/181/37 50/182/49 89/183/92 55/184/52
f 55/184/52 89/183/92 90/176/91 56/175/72
f 50/182/49 49/185/73 91/186/93 89/183/92
f 89/183/92 91/186/93 92/187/5 90/176/91
f 49/188/73 23/189/39 60/190/71 91/191/93
f 91/191/93 60/190/71 59/6/6 92/5/5
f 68/108/68 94/192/94 29/129/79 2/109/22
f 94/192/94 96/1/1 30/4/4 29/129/79
f 15/68/32 62/67/54 93/193/95 67/73/57
f 67/73/57 93/193/95 94/192/94 68/108/68
f 62/67/54 61/110/69 95/194/96 93/193/95
f 93/193/95 95/194/96 96/1/1 94/192/94
f 61/110/69 17/105/34 72/104/67 95/194/96
f 95/194/96 72/104/67 71/2/2 96/1/1
