# Blender v2.79 (sub 0) OBJ File: 'Brick_1x1_Deformed.blend'
# www.blender.org
mtllib Brick_1x1_Deformed.mtl
o Cube_Cube.001
v -0.265000 -0.315000 0.265000
v -0.265000 -0.265000 0.315000
v -0.315000 -0.265000 0.265000
v -0.265000 0.265000 0.315000
v -0.265000 0.304898 0.265000
v -0.315000 0.265000 0.265000
v -0.265000 -0.315000 -0.265000
v -0.315000 -0.265000 -0.265000
v -0.265000 -0.265000 -0.315000
v -0.265000 0.315000 -0.265000
v -0.265000 0.265000 -0.315000
v -0.315000 0.265000 -0.265000
v 0.265000 -0.315000 0.265000
v 0.315000 -0.265000 0.265000
v 0.265000 -0.265000 0.315000
v 0.253063 0.315000 0.251525
v 0.253063 0.265000 0.301525
v 0.303063 0.265000 0.251525
v 0.265000 -0.315000 -0.265000
v 0.265000 -0.265000 -0.315000
v 0.315000 -0.265000 -0.265000
v 0.278808 0.315734 -0.252837
v 0.328808 0.265734 -0.252837
v 0.278808 0.265734 -0.302837
v -0.265000 -0.315000 -0.132500
v -0.265000 -0.315000 0.000000
v -0.265000 -0.315000 0.132500
v -0.315000 -0.265000 0.132500
v -0.315000 -0.265000 0.000000
v -0.315000 -0.265000 -0.132500
v -0.265000 -0.132500 0.315000
v -0.246284 0.013098 0.320618
v -0.246284 0.145598 0.320618
v -0.296284 0.145598 0.270618
v -0.296284 0.013098 0.270618
v -0.315000 -0.132500 0.265000
v -0.265000 0.326994 0.132500
v -0.265000 0.315000 0.000000
v -0.265000 0.315000 -0.132500
v -0.315000 0.265000 -0.132500
v -0.315000 0.265000 0.000000
v -0.315000 0.265000 0.132500
v -0.265822 0.156097 -0.306070
v -0.265000 0.000000 -0.315000
v -0.265000 -0.132500 -0.315000
v -0.315000 -0.132500 -0.265000
v -0.315000 0.000000 -0.265000
v -0.315822 0.156097 -0.256070
v 0.132500 -0.315000 -0.265000
v 0.000000 -0.315000 -0.265000
v -0.132500 -0.315000 -0.265000
v -0.132500 -0.265000 -0.315000
v 0.000000 -0.265000 -0.315000
v 0.132500 -0.265000 -0.315000
v -0.132500 0.315000 -0.265000
v -0.025118 0.329595 -0.267487
v 0.136932 0.305699 -0.268063
v 0.136932 0.255699 -0.318063
v -0.025118 0.279595 -0.317487
v -0.132500 0.265000 -0.315000
v 0.315000 0.132500 -0.265000
v 0.315000 0.000000 -0.265000
v 0.315000 -0.132500 -0.265000
v 0.265000 -0.132500 -0.315000
v 0.265000 0.000000 -0.315000
v 0.265000 0.132500 -0.315000
v 0.265000 -0.315000 0.132500
v 0.265000 -0.315000 0.000000
v 0.265000 -0.315000 -0.132500
v 0.315000 -0.265000 -0.132500
v 0.315000 -0.265000 0.000000
v 0.315000 -0.265000 0.132500
v 0.265000 0.315000 -0.132500
v 0.240200 0.304970 0.004190
v 0.265000 0.315000 0.132500
v 0.315000 0.265000 0.132500
v 0.290200 0.265000 0.004190
v 0.315000 0.265000 -0.132500
v 0.265000 0.132500 0.315000
v 0.271826 0.010504 0.303742
v 0.265000 -0.132500 0.315000
v 0.315000 -0.132500 0.265000
v 0.321826 0.010504 0.253742
v 0.315000 0.132500 0.265000
v -0.132500 -0.315000 0.265000
v 0.000000 -0.315000 0.265000
v 0.132500 -0.315000 0.265000
v 0.132500 -0.265000 0.315000
v 0.000000 -0.265000 0.315000
v -0.132500 -0.265000 0.315000
v 0.132500 0.315000 0.265000
v 0.000000 0.318633 0.265000
v -0.108074 0.315000 0.269467
v -0.132500 0.265000 0.315000
v 0.000000 0.265000 0.315000
v 0.120563 0.265000 0.301525
v -0.174358 -0.328932 -0.111745
v -0.121269 -0.308977 -0.054639
v -0.165010 -0.304281 0.165875
v 0.016097 -0.319063 -0.074325
v -0.025202 -0.287553 0.001175
v 0.021711 -0.328048 0.159639
v 0.144429 -0.352952 -0.083879
v 0.133309 -0.316400 0.021769
v 0.148494 -0.305794 0.142035
v -0.134169 -0.132465 -0.314591
v 0.006205 -0.163724 -0.322079
v 0.152873 -0.177720 -0.276552
v -0.129195 -0.004436 -0.328463
v -0.005310 -0.003420 -0.359834
v 0.146048 0.003048 -0.315552
v -0.105331 0.127364 -0.280197
v -0.046595 0.164684 -0.282265
v 0.095569 0.083049 -0.323606
v -0.332477 -0.134541 0.134030
v -0.269709 -0.158452 0.039678
v -0.274184 -0.118394 -0.132822
v -0.315440 -0.001943 0.136067
v -0.306286 -0.001436 -0.014056
v -0.303052 -0.051104 -0.092460
v -0.317656 0.132659 0.131657
v -0.364540 0.130622 0.011143
v -0.319925 0.128090 -0.130237
v 0.140373 0.317593 -0.134118
v 0.124141 0.298869 -0.020721
v 0.155391 0.306787 0.186851
v 0.020541 0.296523 -0.148390
v 0.003943 0.316774 0.000384
v 0.004804 0.332455 0.135119
v -0.132284 0.320215 -0.132456
v -0.153596 0.347081 0.010486
v -0.128148 0.354472 0.145306
v 0.304935 -0.133140 -0.133560
v 0.328623 -0.171177 0.011304
v 0.360410 -0.100958 0.135305
v 0.318501 0.001624 -0.150260
v 0.276618 0.013221 0.018539
v 0.285545 0.038954 0.180812
v 0.370112 0.111184 -0.100467
v 0.314759 0.137046 0.002181
v 0.335327 0.124777 0.125495
v 0.189727 -0.115148 0.297544
v -0.061974 -0.130346 0.331302
v -0.117212 -0.161761 0.295206
v 0.123687 -0.009025 0.276081
v -0.005884 -0.006060 0.319753
v -0.163068 0.046476 0.316803
v 0.149432 0.145582 0.347963
v 0.045023 0.136542 0.310910
v -0.141992 0.109442 0.292471
vt 0.225749 0.499396
vt 0.307993 0.507920
vt 0.308381 0.563164
vt 0.245126 0.558473
vt 0.232832 0.207872
vt 0.307083 0.220228
vt 0.306855 0.291149
vt 0.236671 0.293638
vt 0.423664 0.762058
vt 0.430317 0.856937
vt 0.360100 0.856927
vt 0.357782 0.748120
vt 0.430791 0.307410
vt 0.429633 0.402326
vt 0.359520 0.402320
vt 0.364239 0.326811
vt 0.855661 0.719105
vt 0.836904 0.839355
vt 0.773844 0.848593
vt 0.783577 0.756309
vt 0.306151 0.965280
vt 0.333292 0.965329
vt 0.306841 1.000000
vt 0.333462 0.856908
vt 0.359922 0.891578
vt 0.359920 0.000000
vt 0.359520 0.034826
vt 0.333462 0.034667
vt 0.640619 0.856932
vt 0.666856 0.856908
vt 0.640396 0.891578
vt 0.000000 0.314485
vt 0.026313 0.293638
vt 0.026350 0.342186
vt 0.333462 0.311996
vt 0.306892 0.339698
vt 0.766745 0.445167
vt 0.783577 0.480930
vt 0.746328 0.480732
vt 0.757012 0.882109
vt 0.736595 0.848396
vt 0.570259 0.000019
vt 0.640372 0.000025
vt 0.639972 0.034851
vt 0.569859 0.034845
vt 0.669952 0.319341
vt 0.666830 0.402190
vt 0.639972 0.402345
vt 0.643095 0.319495
vt 0.570501 0.856932
vt 0.570277 0.891578
vt 0.333462 0.126540
vt 0.359520 0.126699
vt 0.025763 0.873419
vt 0.025763 0.965294
vt 0.000000 0.965346
vt 0.000000 0.873472
vt 0.642200 0.578231
vt 0.634188 0.479860
vt 0.660424 0.479837
vt 0.668436 0.578207
vt 0.746328 0.572525
vt 0.783577 0.572723
vt 0.095860 0.597793
vt 0.025763 0.597797
vt 0.026452 0.563178
vt 0.096549 0.563175
vt 0.430265 0.489434
vt 0.367278 0.497711
vt 0.367055 0.463018
vt 0.430042 0.454741
vt 0.096469 0.342186
vt 0.096433 0.293638
vt 0.306151 0.689657
vt 0.306151 0.597783
vt 0.333292 0.597832
vt 0.333292 0.689707
vt 0.333463 0.765034
vt 0.241225 0.678579
vt 0.236054 0.597786
vt 0.236054 0.965283
vt 0.253859 0.895961
vt 0.306151 0.873405
vt 0.250232 0.766466
vt 0.306151 0.781531
vt 0.106648 0.902425
vt 0.095860 0.965290
vt 0.137134 0.865632
vt 0.165957 0.965287
vt 0.025763 0.781545
vt 0.126581 0.770375
vt 0.166957 0.799041
vt 0.025763 0.689671
vt 0.121059 0.681356
vt 0.177454 0.689101
vt 0.165957 0.597790
vt 0.360146 0.581309
vt 0.340594 0.589562
vt 0.340595 0.497688
vt 0.360162 0.673185
vt 0.333463 0.673159
vt 0.333292 0.873455
vt 0.333292 0.781581
vt 0.236708 0.342186
vt 0.172152 0.333103
vt 0.172116 0.284554
vt 0.570502 0.489434
vt 0.570279 0.454741
vt 0.633964 0.445167
vt 0.498122 0.506625
vt 0.497943 0.471937
vt 0.236743 0.563168
vt 0.306841 0.563164
vt 0.166646 0.563171
vt 0.746328 0.756112
vt 0.746328 0.664319
vt 0.783577 0.664516
vt 0.640620 0.765057
vt 0.666856 0.765034
vt 0.642001 0.690606
vt 0.668238 0.690583
vt 0.000000 0.689723
vt 0.000000 0.597849
vt 0.000000 0.781597
vt 0.333462 0.402160
vt 0.338181 0.326652
vt 0.333462 0.218414
vt 0.359520 0.218573
vt 0.640372 0.429852
vt 0.570259 0.445167
vt 0.569859 0.402338
vt 0.500146 0.436844
vt 0.499746 0.402332
vt 0.500382 0.856932
vt 0.500159 0.891578
vt 0.666830 0.034697
vt 0.666830 0.126570
vt 0.639972 0.126725
vt 0.669952 0.227467
vt 0.643095 0.227622
vt 0.430033 0.000006
vt 0.429633 0.034832
vt 0.500146 0.000013
vt 0.499746 0.034839
vt 0.837683 0.478475
vt 0.816421 0.538454
vt 0.832336 0.664436
vt 1.000000 0.471110
vt 1.000000 0.562904
vt 0.946438 0.565343
vt 0.945894 0.473565
vt 0.891638 0.546456
vt 0.891789 0.476020
vt 1.000000 0.654697
vt 0.949077 0.654443
vt 0.909050 0.658147
vt 0.997330 0.762622
vt 0.923084 0.745108
vt 0.899796 0.772097
vt 1.000000 0.838283
vt 0.945894 0.840738
vt 0.902883 0.852894
vt 0.429789 0.136358
vt 0.450916 0.183109
vt 0.570529 0.125358
vt 0.521104 0.108577
vt 0.571743 0.217246
vt 0.492378 0.217562
vt 0.569392 0.310583
vt 0.505246 0.309312
vt 0.401466 0.565432
vt 0.428957 0.669860
vt 0.571370 0.575851
vt 0.511277 0.587097
vt 0.578828 0.658931
vt 0.500188 0.670449
vt 0.570501 0.764910
vt 0.494977 0.779700
vt 0.026606 0.220228
vt 0.113278 0.202849
vt 0.187439 0.259276
vt 0.027483 0.000000
vt 0.097603 0.000000
vt 0.097003 0.077019
vt 0.027191 0.073409
vt 0.076485 0.147402
vt 0.026898 0.146819
vt 0.167722 0.000000
vt 0.168318 0.062110
vt 0.174205 0.173093
vt 0.730438 0.000000
vt 0.730438 0.128994
vt 0.671147 0.128497
vt 0.669952 0.031902
vt 0.668436 0.738668
vt 0.706273 0.662930
vt 0.226036 0.068179
vt 0.239658 0.148128
vt 0.701724 0.844927
vt 0.307668 0.073409
vt 0.307439 0.159480
vt 0.673870 0.217837
vt 0.669952 0.128994
vt 0.722952 0.137022
vt 0.722952 0.233945
vt 0.027516 0.507920
vt 0.082149 0.490579
vt 0.098023 0.563164
vt 0.027904 0.563164
vt 0.192435 0.521664
vt 0.175007 0.558473
vt 0.105911 0.363899
vt 0.026738 0.397431
vt 0.098532 0.487547
vt 0.027127 0.452675
vt 0.162313 0.379543
vt 0.164165 0.457762
vt 0.243897 0.408634
vt 0.239501 0.431638
vt 0.307280 0.394942
vt 0.307604 0.452675
vn 0.0382 0.0487 0.9981
vn 0.0035 0.3493 0.9370
vn -0.3413 0.3327 0.8791
vn -0.3001 -0.0173 0.9537
vn 0.9921 -0.1114 -0.0568
vn 0.8935 0.4480 -0.0317
vn 0.8351 0.4032 0.3741
vn 0.9113 0.0070 0.4115
vn -0.0209 0.9966 0.0799
vn -0.4727 0.8795 0.0556
vn -0.3772 0.8380 0.3941
vn -0.0142 0.8706 0.4917
vn -0.9971 -0.0184 -0.0740
vn -0.9008 0.4318 -0.0457
vn -0.8730 0.3332 -0.3562
vn -0.9295 -0.0091 -0.3687
vn 0.0219 0.1130 -0.9933
vn 0.0134 0.3540 -0.9351
vn 0.3784 0.3594 -0.8530
vn 0.3946 0.0067 -0.9188
vn -0.3287 -0.8853 0.3287
vn -0.3229 -0.3229 0.8896
vn -0.8627 -0.3576 0.3576
vn -0.8769 0.3175 0.3608
vn -0.3553 -0.8646 -0.3553
vn -0.9005 -0.3074 -0.3074
vn -0.3412 -0.3412 -0.8759
vn -0.3463 0.8719 -0.3463
vn -0.3243 0.2857 -0.9018
vn 0.3324 -0.8826 0.3324
vn 0.8448 -0.3783 0.3783
vn 0.3232 -0.3232 0.8894
vn 0.3253 0.8788 0.3490
vn 0.3709 0.4167 0.8299
vn 0.3716 -0.8508 -0.3716
vn 0.2974 -0.2974 -0.9073
vn 0.8826 -0.3324 -0.3324
vn 0.3567 0.8795 -0.3148
vn 0.8614 0.3743 -0.3434
vn -0.3531 -0.9355 -0.0045
vn -0.9290 -0.3652 -0.0595
vn -0.8948 -0.0399 0.4446
vn -0.4213 0.9062 -0.0338
vn -0.3939 -0.0136 -0.9190
vn -0.9486 -0.0020 -0.3164
vn -0.0013 -0.9134 -0.4071
vn -0.0079 -0.3889 -0.9212
vn 0.0319 0.9183 -0.3945
vn 0.9299 -0.0030 -0.3678
vn 0.3109 -0.0032 -0.9504
vn 0.4537 -0.8911 -0.0085
vn 0.9261 -0.3771 -0.0133
vn 0.3692 0.9281 -0.0481
vn 0.3133 0.0507 0.9483
vn 0.8900 0.0070 0.4558
vn 0.0161 -0.9236 0.3829
vn 0.0132 -0.3681 0.9297
vn -0.0049 -0.9998 -0.0188
vn 0.3681 -0.9298 0.0025
vn 0.0218 -0.9993 -0.0309
vn -0.0125 -0.9259 0.3775
vn 0.0067 -0.9994 -0.0346
vn -0.0019 -0.9193 0.3935
vn -0.0148 -0.9984 0.0551
vn -0.4018 -0.9156 0.0078
vn 0.0023 -0.9849 0.1732
vn -0.3662 -0.9300 0.0304
vn -0.0231 -0.9084 -0.4175
vn -0.1054 -0.9843 0.1416
vn -0.0476 -0.9946 0.0925
vn -0.0049 -0.9001 -0.4357
vn 0.0064 -0.9978 0.0651
vn -0.0273 -0.9956 0.0898
vn 0.4288 -0.9016 0.0569
vn 0.0462 0.8986 0.4363
vn 0.0241 0.4343 0.9004
vn 0.0639 0.8841 0.4630
vn -0.0255 0.3454 0.9381
vn -0.0226 -0.3694 0.9290
vn -0.0064 -0.3864 0.9223
vn 0.4182 0.0027 0.9084
vn 0.3694 -0.0649 0.9270
vn 0.9232 0.0246 0.3835
vn 0.3598 0.9297 0.0782
vn 0.8698 0.4855 0.0882
vn 0.2983 0.9544 0.0125
vn 0.8485 0.5286 0.0236
vn 0.8831 -0.4686 0.0231
vn 0.9003 -0.4334 -0.0397
vn 0.8802 -0.0068 -0.4745
vn 0.9024 -0.0560 -0.4273
vn 0.3595 -0.0428 -0.9321
vn -0.0255 0.9299 -0.3670
vn 0.0078 0.2635 -0.9646
vn 0.0123 0.9437 -0.3305
vn -0.0363 0.3464 -0.9374
vn 0.0077 -0.3102 -0.9506
vn 0.0352 -0.3601 -0.9322
vn -0.3607 -0.0092 -0.9326
vn -0.3774 0.0491 -0.9247
vn -0.9324 -0.0444 -0.3587
vn -0.9132 0.4002 0.0765
vn -0.4836 0.8739 -0.0497
vn -0.8879 0.4600 -0.0077
vn -0.3569 0.0181 0.9340
vn -0.9072 0.0326 0.4193
vn -0.3057 0.0130 0.9520
vn -0.8898 0.0450 0.4541
vn -0.9598 -0.2748 0.0570
vn -0.9633 -0.2644 -0.0447
vn 0.0138 0.0231 -0.9996
vn 0.0667 -0.0419 -0.9969
vn -0.0645 -0.0686 -0.9955
vn 0.0787 -0.0680 -0.9946
vn -0.0970 0.0785 -0.9922
vn -0.0016 0.0666 -0.9978
vn -0.0507 0.1006 -0.9936
vn -0.0679 -0.0050 -0.9977
vn -0.9948 -0.0135 0.1009
vn -0.9776 -0.2100 0.0113
vn -0.9960 0.0156 -0.0877
vn -0.9878 0.0511 -0.1471
vn -0.9979 -0.0530 0.0363
vn -0.9719 -0.2222 -0.0777
vn -0.9901 -0.0245 0.1382
vn -0.9997 -0.0199 0.0117
vn 0.0217 0.9992 -0.0317
vn 0.1357 0.9907 0.0034
vn -0.0156 0.9992 0.0352
vn 0.0172 0.9998 -0.0022
vn 0.0421 0.9990 0.0161
vn 0.1293 0.9877 -0.0876
vn 0.0183 0.9987 -0.0461
vn -0.0318 0.9948 -0.0962
vn 0.9903 0.1303 -0.0488
vn 0.9960 -0.0373 -0.0811
vn 0.9992 0.0335 0.0187
vn 0.9969 0.0142 -0.0776
vn 0.9933 -0.1120 0.0266
vn 0.9983 -0.0580 0.0090
vn 0.9897 -0.0689 0.1256
vn 0.9914 -0.0582 0.1172
vn -0.0607 -0.0048 0.9981
vn 0.0416 0.0627 0.9972
vn -0.0459 0.0791 0.9958
vn -0.0633 0.0133 0.9979
vn 0.0439 -0.0515 0.9977
vn 0.0123 0.0432 0.9990
vn 0.0332 -0.0124 0.9994
vn -0.0409 -0.0199 0.9990
usemtl None
s 1
f 150/1/1 94/2/2 4/3/3 33/4/4
f 141/5/5 76/6/6 18/7/7 84/8/8
f 132/9/9 37/10/10 5/11/11 93/12/12
f 123/13/13 40/14/14 12/15/15 48/16/16
f 114/17/17 58/18/18 24/19/19 66/20/20
f 1/21/21 2/22/22 3/23/23
f 4/24/3 5/11/11 6/25/24
f 7/26/25 8/27/26 9/28/27
f 10/29/28 11/30/29 12/31/15
f 13/32/30 14/33/31 15/34/32
f 16/35/33 17/36/34 18/7/7
f 19/37/35 20/38/36 21/39/37
f 22/40/38 23/41/39 24/19/19
f 27/42/40 1/43/21 3/44/23 28/45/41
f 33/46/4 4/47/3 6/48/24 34/49/42
f 39/50/43 10/29/28 12/31/15 40/51/14
f 45/52/44 9/28/27 8/27/26 46/53/45
f 51/54/46 7/55/25 9/56/27 52/57/47
f 57/58/48 22/59/38 24/60/19 58/61/18
f 63/62/49 21/39/37 20/38/36 64/63/50
f 69/64/51 19/65/35 21/66/37 70/67/52
f 75/68/53 16/69/33 18/70/7 76/71/6
f 81/72/54 15/34/32 14/33/31 82/73/55
f 87/74/56 13/75/30 15/76/32 88/77/57
f 93/12/12 5/11/11 4/24/3 94/78/2
f 105/79/58 67/80/59 13/75/30 87/74/56
f 27/81/40 99/82/60 85/83/61 1/21/21
f 99/82/60 102/84/62 86/85/63 85/83/61
f 102/84/62 105/79/58 87/74/56 86/85/63
f 7/55/25 51/54/46 97/86/64 25/87/65
f 25/87/65 97/86/64 98/88/66 26/89/67
f 26/89/67 98/88/66 99/82/60 27/81/40
f 51/54/46 50/90/68 100/91/69 97/86/64
f 97/86/64 100/91/69 101/92/70 98/88/66
f 98/88/66 101/92/70 102/84/62 99/82/60
f 50/90/68 49/93/71 103/94/72 100/91/69
f 100/91/69 103/94/72 104/95/73 101/92/70
f 101/92/70 104/95/73 105/79/58 102/84/62
f 49/93/71 19/65/35 69/64/51 103/94/72
f 103/94/72 69/64/51 68/96/74 104/95/73
f 104/95/73 68/96/74 67/80/59 105/79/58
f 16/69/33 91/97/75 96/98/76 17/99/34
f 91/97/75 92/100/77 95/101/78 96/98/76
f 92/100/77 93/12/12 94/78/2 95/101/78
f 1/21/21 85/83/61 90/102/79 2/22/22
f 85/83/61 86/85/63 89/103/80 90/102/79
f 86/85/63 87/74/56 88/77/57 89/103/80
f 17/36/34 79/104/81 84/8/8 18/7/7
f 79/104/81 80/105/82 83/106/83 84/8/8
f 80/105/82 81/72/54 82/73/55 83/106/83
f 22/59/38 73/107/84 78/108/85 23/109/39
f 73/107/84 74/110/86 77/111/87 78/108/85
f 74/110/86 75/68/53 76/71/6 77/111/87
f 13/75/30 67/80/59 72/112/88 14/113/31
f 67/80/59 68/96/74 71/114/89 72/112/88
f 68/96/74 69/64/51 70/67/52 71/114/89
f 23/41/39 61/115/90 66/20/20 24/19/19
f 61/115/90 62/116/91 65/117/92 66/20/20
f 62/116/91 63/62/49 64/63/50 65/117/92
f 10/29/28 55/118/93 60/119/94 11/30/29
f 55/118/93 56/120/95 59/121/96 60/119/94
f 56/120/95 57/58/48 58/61/18 59/121/96
f 19/65/35 49/93/71 54/122/97 20/123/36
f 49/93/71 50/90/68 53/124/98 54/122/97
f 50/90/68 51/54/46 52/57/47 53/124/98
f 11/125/29 43/126/99 48/16/16 12/15/15
f 43/126/99 44/127/100 47/128/101 48/16/16
f 44/127/100 45/52/44 46/53/45 47/128/101
f 5/129/11 37/130/10 42/131/102 6/48/24
f 37/130/10 38/132/103 41/133/104 42/131/102
f 38/134/103 39/50/43 40/51/14 41/135/104
f 2/136/22 31/137/105 36/138/106 3/44/23
f 31/137/105 32/139/107 35/140/108 36/138/106
f 32/139/107 33/46/4 34/49/42 35/140/108
f 7/26/25 25/141/65 30/142/109 8/27/26
f 25/141/65 26/143/67 29/144/110 30/142/109
f 26/143/67 27/42/40 28/45/41 29/144/110
f 54/145/97 108/146/111 64/63/50 20/38/36
f 108/146/111 111/147/112 65/117/92 64/63/50
f 111/147/112 114/17/17 66/20/20 65/117/92
f 9/148/27 45/149/44 106/150/113 52/151/47
f 52/151/47 106/150/113 107/152/114 53/153/98
f 53/153/98 107/152/114 108/146/111 54/145/97
f 45/149/44 44/154/100 109/155/115 106/150/113
f 106/150/113 109/155/115 110/156/116 107/152/114
f 107/152/114 110/156/116 111/147/112 108/146/111
f 44/154/100 43/157/99 112/158/117 109/155/115
f 109/155/115 112/158/117 113/159/118 110/156/116
f 110/156/116 113/159/118 114/17/17 111/147/112
f 43/157/99 11/160/29 60/161/94 112/158/117
f 112/158/117 60/161/94 59/162/96 113/159/118
f 113/159/118 59/162/96 58/18/18 114/17/17
f 30/142/109 117/163/119 46/53/45 8/27/26
f 117/163/119 120/164/120 47/128/101 46/53/45
f 120/164/120 123/13/13 48/16/16 47/128/101
f 3/44/23 36/138/106 115/165/121 28/45/41
f 28/45/41 115/165/121 116/166/122 29/144/110
f 29/144/110 116/166/122 117/163/119 30/142/109
f 36/138/106 35/140/108 118/167/123 115/165/121
f 115/165/121 118/167/123 119/168/124 116/166/122
f 116/166/122 119/168/124 120/164/120 117/163/119
f 35/140/108 34/49/42 121/169/125 118/167/123
f 118/167/123 121/169/125 122/170/126 119/168/124
f 119/168/124 122/170/126 123/13/13 120/164/120
f 34/49/42 6/48/24 42/131/102 121/169/125
f 121/169/125 42/131/102 41/133/104 122/170/126
f 122/170/126 41/133/104 40/14/14 123/13/13
f 75/68/53 126/171/127 91/97/75 16/69/33
f 126/171/127 129/172/128 92/100/77 91/97/75
f 129/172/128 132/9/9 93/12/12 92/100/77
f 22/59/38 57/58/48 124/173/129 73/107/84
f 73/107/84 124/173/129 125/174/130 74/110/86
f 74/110/86 125/174/130 126/171/127 75/68/53
f 57/58/48 56/120/95 127/175/131 124/173/129
f 124/173/129 127/175/131 128/176/132 125/174/130
f 125/174/130 128/176/132 129/172/128 126/171/127
f 56/120/95 55/118/93 130/177/133 127/175/131
f 127/175/131 130/177/133 131/178/134 128/176/132
f 128/176/132 131/178/134 132/9/9 129/172/128
f 55/118/93 10/29/28 39/50/43 130/177/133
f 130/177/133 39/50/43 38/134/103 131/178/134
f 131/178/134 38/134/103 37/10/10 132/9/9
f 72/179/88 135/180/135 82/73/55 14/33/31
f 135/180/135 138/181/136 83/106/83 82/73/55
f 138/181/136 141/5/5 84/8/8 83/106/83
f 21/182/37 63/183/49 133/184/137 70/185/52
f 70/185/52 133/184/137 134/186/138 71/187/89
f 71/187/89 134/186/138 135/180/135 72/179/88
f 63/183/49 62/188/91 136/189/139 133/184/137
f 133/184/137 136/189/139 137/190/140 134/186/138
f 134/191/138 137/192/140 138/193/136 135/194/135
f 62/116/91 61/115/90 139/195/141 136/196/139
f 136/189/139 139/197/141 140/198/142 137/190/140
f 137/190/140 140/198/142 141/5/5 138/181/136
f 61/115/90 23/41/39 78/199/85 139/195/141
f 139/197/141 78/200/85 77/201/87 140/198/142
f 140/202/142 77/203/87 76/204/6 141/205/5
f 90/206/79 144/207/143 31/208/105 2/209/22
f 144/207/143 147/210/144 32/211/107 31/208/105
f 147/210/144 150/1/1 33/4/4 32/211/107
f 15/34/32 81/72/54 142/212/145 88/213/57
f 88/213/57 142/212/145 143/214/146 89/215/80
f 89/215/80 143/214/146 144/207/143 90/206/79
f 81/72/54 80/105/82 145/216/147 142/212/145
f 142/212/145 145/216/147 146/217/148 143/214/146
f 143/214/146 146/217/148 147/210/144 144/207/143
f 80/105/82 79/104/81 148/218/149 145/216/147
f 145/216/147 148/218/149 149/219/150 146/217/148
f 146/217/148 149/219/150 150/1/1 147/210/144
f 79/104/81 17/36/34 96/220/76 148/218/149
f 148/218/149 96/220/76 95/221/78 149/219/150
f 149/219/150 95/221/78 94/2/2 150/1/1
