# Blender v2.79 (sub 0) OBJ File: 'Brick_1x2_Deformed.blend'
# www.blender.org
mtllib Brick_1x2_Deformed.mtl
o Cube_Cube.001
v -0.287835 -0.296987 0.650000
v -0.287835 -0.287987 0.660000
v -0.296835 -0.287987 0.650000
v -0.287835 0.288013 0.660000
v -0.287835 0.297013 0.650000
v -0.296835 0.288013 0.650000
v -0.261934 -0.224779 -0.614176
v -0.269156 -0.217557 -0.614176
v -0.261934 -0.217557 -0.622201
v -0.251596 0.214936 -0.593751
v -0.251645 0.207605 -0.600578
v -0.258219 0.208238 -0.592913
v 0.288165 -0.296987 0.650000
v 0.297165 -0.287987 0.650000
v 0.288165 -0.287987 0.660000
v 0.297789 0.297013 0.588576
v 0.297789 0.288013 0.598576
v 0.306789 0.288013 0.588576
v 0.288165 -0.296987 -0.650000
v 0.288165 -0.287987 -0.660000
v 0.297165 -0.287987 -0.650000
v 0.288165 0.297013 -0.650000
v 0.297165 0.288013 -0.650000
v 0.288165 0.288013 -0.660000
v -0.287835 -0.296987 -0.325000
v -0.287835 -0.296987 0.000000
v -0.287835 -0.296987 0.325000
v -0.296835 -0.287987 0.325000
v -0.296835 -0.287987 0.000000
v -0.269156 -0.217557 -0.353370
v -0.287835 -0.143987 0.660000
v -0.287835 0.000013 0.660000
v -0.287835 0.144013 0.660000
v -0.296835 0.144013 0.650000
v -0.296835 0.000013 0.650000
v -0.296835 -0.143987 0.650000
v -0.287835 0.297013 0.325000
v -0.281509 0.245121 -0.109402
v -0.255128 0.252683 -0.342868
v -0.261397 0.246034 -0.342307
v -0.288353 0.238241 -0.109463
v -0.296835 0.288013 0.325000
v -0.256548 0.118796 -0.573133
v -0.257124 0.021884 -0.606507
v -0.258247 -0.088565 -0.610172
v -0.264979 -0.088402 -0.602497
v -0.263658 0.013937 -0.556084
v -0.262967 0.119593 -0.565418
v 0.144165 -0.296987 -0.650000
v 0.000165 -0.296987 -0.650000
v -0.143835 -0.296987 -0.650000
v -0.146377 -0.217557 -0.622201
v -0.030819 -0.217557 -0.622201
v 0.084738 -0.217557 -0.622201
v -0.150640 0.232111 -0.580132
v -0.041740 0.243337 -0.602081
v 0.084738 0.251894 -0.614176
v 0.144165 0.288013 -0.660000
v -0.041660 0.236636 -0.609684
v -0.150595 0.224785 -0.586959
v 0.297165 0.144013 -0.650000
v 0.297165 0.000013 -0.650000
v 0.297165 -0.143987 -0.650000
v 0.288165 -0.143987 -0.660000
v 0.288165 0.000013 -0.660000
v 0.288165 0.144013 -0.660000
v 0.288165 -0.296987 0.325000
v 0.288165 -0.296987 0.000000
v 0.288165 -0.296987 -0.325000
v 0.297165 -0.287987 -0.325000
v 0.297165 -0.287987 0.000000
v 0.297165 -0.287987 0.325000
v 0.288165 0.297013 -0.325000
v 0.288165 0.297013 0.000000
v 0.253159 0.297013 0.325000
v 0.262159 0.288013 0.325000
v 0.297165 0.288013 0.000000
v 0.297165 0.288013 -0.325000
v 0.288165 0.144013 0.660000
v 0.288165 0.000013 0.660000
v 0.288165 -0.143987 0.660000
v 0.297165 -0.143987 0.650000
v 0.297165 0.000013 0.650000
v 0.297165 0.144013 0.650000
v -0.143835 -0.296987 0.650000
v 0.000165 -0.296987 0.650000
v 0.144165 -0.296987 0.650000
v 0.144165 -0.287987 0.660000
v 0.000165 -0.287987 0.660000
v -0.143835 -0.287987 0.660000
v 0.144165 0.297013 0.635329
v 0.000165 0.297013 0.650000
v -0.143835 0.297013 0.650000
v -0.143835 0.288013 0.660000
v 0.000165 0.288013 0.660000
v 0.144165 0.288013 0.645329
v -0.132886 -0.289303 -0.333422
v -0.126571 -0.284875 0.083833
v -0.101622 -0.313338 0.372554
v -0.040273 -0.304223 -0.383891
v -0.045389 -0.328603 -0.039622
v -0.044803 -0.248744 0.350771
v 0.109992 -0.350695 -0.335818
v 0.136545 -0.296092 -0.006943
v 0.157834 -0.250004 0.341644
v -0.150274 -0.093995 -0.621563
v -0.014576 -0.110553 -0.550905
v 0.089453 -0.109701 -0.620151
v -0.151677 0.020712 -0.607420
v -0.034598 0.021051 -0.601139
v 0.074073 -0.001128 -0.650262
v -0.148183 0.083757 -0.531898
v -0.041578 0.101865 -0.563539
v 0.176169 0.155042 -0.643255
v -0.332275 -0.121276 0.289600
v -0.294268 -0.086274 -0.072388
v -0.248316 -0.093147 -0.380758
v -0.350565 -0.057167 0.285287
v -0.271449 0.039256 -0.118580
v -0.252489 0.009301 -0.303359
v -0.238536 0.157477 0.397629
v -0.295407 0.137972 -0.086939
v -0.267286 0.150661 -0.323400
v 0.044225 0.286521 -0.331753
v 0.077934 0.270775 -0.088441
v 0.177918 0.287218 0.344584
v -0.044782 0.242191 -0.357363
v -0.057285 0.245568 -0.056028
v 0.032346 0.239082 0.312558
v -0.118607 0.271129 -0.379379
v -0.153306 0.227466 -0.098026
v -0.133878 0.312086 0.294520
v 0.302228 -0.153398 -0.315100
v 0.251715 -0.162121 0.008891
v 0.293080 -0.166314 0.360225
v 0.297045 0.000034 -0.325019
v 0.347214 0.044363 -0.057554
v 0.297911 0.000013 0.326224
v 0.324804 0.081279 -0.286793
v 0.354029 0.155157 -0.045595
v 0.351510 0.180863 0.364193
v 0.172785 -0.108536 0.667751
v -0.044071 -0.146650 0.631988
v -0.176440 -0.099480 0.681713
v 0.144718 0.020013 0.659043
v 0.057244 0.025246 0.665511
v -0.112868 0.018095 0.711179
v 0.133914 0.201709 0.639783
v 0.034595 0.094956 0.704349
v -0.090653 0.135329 0.666954
vt 0.682149 0.892376
vt 0.747215 0.920189
vt 0.747251 0.995755
vt 0.685963 0.995755
vt 0.049192 0.155032
vt 0.003986 0.175949
vt 0.003790 0.037421
vt 0.065137 0.005215
vt 0.435996 0.500903
vt 0.501805 0.516984
vt 0.501714 0.687579
vt 0.440532 0.687579
vt 0.808335 0.160426
vt 0.767667 0.151305
vt 0.782166 0.019493
vt 0.819974 0.033150
vt 0.439833 0.762289
vt 0.426690 0.693146
vt 0.487870 0.692877
vt 0.487870 0.768350
vt 0.505848 0.682424
vt 0.505784 0.687610
vt 0.501953 0.682363
vt 0.756523 0.677781
vt 0.752675 0.672629
vt 0.756982 0.672786
vt 0.499603 0.695419
vt 0.501953 0.692877
vt 0.501953 0.698545
vt 0.778960 0.018938
vt 0.782022 0.015288
vt 0.252912 0.005249
vt 0.249040 0.005215
vt 0.249081 0.000000
vt 0.000000 0.037455
vt 0.003832 0.032206
vt 0.252869 0.687647
vt 0.249037 0.692896
vt 0.248996 0.687612
vt 0.000003 0.687647
vt 0.003793 0.687612
vt 0.003834 0.692896
vt 0.505848 0.511834
vt 0.501953 0.511773
vt 0.817277 0.676345
vt 0.817736 0.671351
vt 0.764504 0.150905
vt 0.907303 0.007489
vt 0.961874 0.000000
vt 0.962323 0.004404
vt 0.907655 0.011698
vt 0.304059 1.000000
vt 0.252912 0.961327
vt 0.253130 0.957777
vt 0.302225 0.957561
vt 0.344978 0.024250
vt 0.257346 0.005200
vt 0.257590 0.000000
vt 0.318773 0.000000
vt 0.187695 0.687612
vt 0.187736 0.692896
vt 0.252879 0.517047
vt 0.249007 0.517013
vt 0.000196 0.175983
vt 0.187780 0.000000
vt 0.187739 0.005215
vt 0.689735 0.682374
vt 0.751031 0.682357
vt 0.750967 0.687544
vt 0.689671 0.687561
vt 0.501953 0.692877
vt 0.440770 0.692877
vt 0.695218 0.520195
vt 0.751031 0.511768
vt 0.585229 0.536886
vt 0.567144 0.682407
vt 0.608954 0.525001
vt 0.628440 0.682390
vt 0.516358 0.018370
vt 0.567144 0.000050
vt 0.571750 0.166164
vt 0.505848 0.170656
vt 0.574406 0.385146
vt 0.505848 0.341245
vt 0.628440 0.000033
vt 0.611278 0.139766
vt 0.609275 0.320638
vt 0.689736 0.000017
vt 0.675572 0.165301
vt 0.686485 0.337546
vt 0.751031 0.000000
vt 0.751031 0.170589
vt 0.751031 0.341179
vt 0.252912 0.655337
vt 0.318171 0.679878
vt 0.318409 0.685176
vt 0.253151 0.660635
vt 0.379349 0.687579
vt 0.379588 0.692877
vt 0.567080 0.687594
vt 0.628375 0.687577
vt 0.065179 0.000000
vt 0.126479 0.000000
vt 0.126438 0.005215
vt 0.000014 0.517048
vt 0.003804 0.517013
vt 0.000024 0.346448
vt 0.003814 0.346413
vt 0.252901 0.175849
vt 0.249029 0.175814
vt 0.252890 0.346448
vt 0.249018 0.346413
vt 0.065094 0.687612
vt 0.065134 0.692896
vt 0.126394 0.687612
vt 0.126435 0.692896
vt 0.256750 0.730249
vt 0.299272 0.720660
vt 0.299477 0.724699
vt 0.256914 0.734291
vt 0.346135 0.715215
vt 0.346375 0.718949
vt 0.398942 0.030646
vt 0.399090 0.026691
vt 0.487599 0.999193
vt 0.426419 0.999462
vt 0.400416 0.957129
vt 0.487870 0.994769
vt 0.365239 0.999731
vt 0.351321 0.957345
vt 0.819907 0.028922
vt 0.860659 0.010480
vt 0.864637 0.037008
vt 0.751031 0.502289
vt 0.755338 0.502446
vt 0.770370 0.273918
vt 0.773660 0.274005
vt 0.999541 0.672039
vt 0.938786 0.673475
vt 0.939245 0.668480
vt 1.000000 0.667045
vt 0.878031 0.674910
vt 0.878491 0.669916
vt 0.964961 0.004134
vt 0.998356 0.155689
vt 0.963642 0.141098
vt 1.000000 0.326029
vt 0.996713 0.326365
vt 0.501953 0.341184
vt 0.402364 0.900531
vt 0.487870 0.919296
vt 0.396646 0.844536
vt 0.487870 0.843823
vt 0.254369 0.889812
vt 0.300552 0.892789
vt 0.356288 0.899147
vt 0.254747 0.831814
vt 0.299572 0.832258
vt 0.349144 0.831678
vt 0.254086 0.780043
vt 0.299008 0.796999
vt 0.345158 0.788235
vt 0.909834 0.127412
vt 0.867238 0.169114
vt 0.929849 0.480785
vt 0.998356 0.496705
vt 0.911097 0.290365
vt 0.903816 0.479666
vt 0.856609 0.266780
vt 0.807476 0.537612
vt 0.816477 0.285005
vt 0.271948 0.516984
vt 0.304173 0.527318
vt 0.367324 0.510769
vt 0.361184 0.172307
vt 0.257255 0.175795
vt 0.347216 0.300110
vt 0.257165 0.346390
vt 0.400197 0.159106
vt 0.405335 0.317261
vt 0.445507 0.042228
vt 0.430794 0.147392
vt 0.446630 0.295314
vt 0.488865 0.035173
vt 0.489283 0.166657
vt 0.500630 0.289246
vt 0.197252 0.157340
vt 0.126424 0.175169
vt 0.191690 0.511797
vt 0.195645 0.341921
vt 0.126397 0.517023
vt 0.107305 0.376433
vt 0.091685 0.496851
vt 0.060109 0.370129
vt 0.502063 0.920189
vt 0.582088 0.937593
vt 0.563387 0.995755
vt 0.502099 0.995755
vt 0.631823 0.904632
vt 0.624675 0.995755
vt 0.501953 0.693493
vt 0.563241 0.693493
vt 0.578282 0.754145
vt 0.501989 0.769058
vt 0.562468 0.867458
vt 0.502026 0.844624
vt 0.624529 0.693493
vt 0.633087 0.768755
vt 0.635273 0.814746
vt 0.685817 0.693493
vt 0.710611 0.774164
vt 0.664566 0.827157
vt 0.747707 0.687610
vt 0.747286 0.768859
vt 0.747178 0.844624
vn -0.0762 0.0933 0.9927
vn -0.0320 0.4337 0.9005
vn -0.3645 0.3645 0.8569
vn -0.4474 0.0521 0.8928
vn 0.9907 0.1253 0.0529
vn 0.8076 0.5897 0.0023
vn 0.8383 0.4875 0.2439
vn 0.9004 0.0823 0.4272
vn 0.1072 0.9904 -0.0872
vn -0.3917 0.9183 -0.0569
vn -0.3569 0.8759 0.3245
vn 0.0481 0.9336 0.3550
vn -0.9980 -0.0234 -0.0575
vn -0.9065 0.4144 -0.0803
vn -0.8831 0.2809 -0.3757
vn -0.9792 -0.0266 -0.2011
vn -0.1582 -0.0268 -0.9870
vn -0.2444 0.7501 -0.6146
vn 0.4261 0.5443 -0.7226
vn 0.3731 -0.0029 -0.9278
vn -0.3581 -0.8753 0.3249
vn -0.3770 -0.3770 0.8460
vn -0.8675 -0.3723 0.3300
vn -0.9102 0.2846 0.3008
vn -0.6862 -0.4191 -0.5945
vn -0.9470 -0.0329 -0.3195
vn -0.3857 -0.0078 -0.9226
vn -0.3912 0.8079 -0.4408
vn -0.3046 0.1543 -0.9399
vn 0.3001 -0.9037 0.3055
vn 0.8846 -0.3403 0.3187
vn 0.3660 -0.3660 0.8556
vn 0.3962 0.8855 0.2427
vn 0.4443 0.4693 0.7631
vn 0.4458 -0.7226 -0.5283
vn 0.2992 -0.0710 -0.9515
vn 0.8801 -0.3491 -0.3217
vn 0.3009 0.9534 -0.0222
vn 0.8722 0.3638 -0.3269
vn -0.3917 -0.9200 -0.0092
vn -0.9019 -0.4320 0.0004
vn -0.9421 0.0253 0.3344
vn -0.4033 0.9139 -0.0466
vn -0.5328 0.0805 -0.8424
vn -0.9745 0.0592 -0.2164
vn -0.1496 -0.6208 -0.7695
vn 0.0384 0.2223 -0.9742
vn -0.1381 0.9780 0.1562
vn 0.9322 0.0000 -0.3618
vn 0.3325 -0.0282 -0.9427
vn 0.4561 -0.8899 0.0020
vn 0.9346 -0.3552 0.0183
vn 0.3072 0.9514 -0.0183
vn 0.4203 -0.0007 0.9074
vn 0.9347 -0.0003 0.3555
vn -0.0484 -0.9514 0.3041
vn -0.0251 -0.3984 0.9168
vn -0.0711 -0.9974 0.0010
vn 0.3037 -0.9528 0.0020
vn 0.1274 -0.9918 -0.0056
vn 0.0579 -0.9326 0.3562
vn 0.1442 -0.9895 0.0110
vn 0.0729 -0.9481 0.3095
vn -0.1722 -0.9844 -0.0350
vn -0.7566 -0.6514 -0.0566
vn 0.0603 -0.9981 0.0077
vn -0.5276 -0.8493 -0.0181
vn -0.0850 -0.5444 -0.8345
vn -0.1297 -0.9911 -0.0291
vn -0.1198 -0.9916 0.0473
vn -0.0214 -0.5898 -0.8072
vn 0.0296 -0.9995 -0.0126
vn 0.0125 -0.9953 0.0960
vn 0.3807 -0.9238 0.0405
vn 0.0221 0.9397 0.3413
vn 0.1631 0.4830 0.8602
vn 0.0497 0.9410 0.3347
vn 0.0415 0.4651 0.8842
vn 0.0394 -0.4081 0.9121
vn 0.0076 -0.3815 0.9243
vn 0.3865 0.1234 0.9140
vn 0.4039 0.0248 0.9145
vn 0.9251 -0.0499 0.3764
vn 0.3329 0.9429 -0.0084
vn 0.8918 0.4516 -0.0288
vn 0.3445 0.9384 0.0254
vn 0.8230 0.5679 0.0097
vn 0.9460 -0.3234 -0.0209
vn 0.9538 -0.3004 0.0074
vn 0.9258 -0.0049 -0.3780
vn 0.9278 -0.0258 -0.3721
vn 0.3597 -0.0209 -0.9328
vn -0.0834 0.9067 -0.4133
vn -0.0699 0.2309 -0.9704
vn -0.1351 0.9811 -0.1386
vn -0.2982 0.3889 -0.8716
vn -0.1389 0.2232 -0.9648
vn 0.0095 0.3222 -0.9466
vn -0.4852 -0.0155 -0.8742
vn -0.5652 0.2535 -0.7850
vn -0.9977 -0.0106 -0.0676
vn -0.9537 0.2996 -0.0257
vn -0.4015 0.9139 -0.0591
vn -0.9424 0.3290 -0.0601
vn -0.4683 -0.0344 0.8829
vn -0.9158 -0.0510 0.3982
vn -0.4978 0.0294 0.8668
vn -0.9214 0.0700 0.3822
vn -0.9954 0.0870 -0.0406
vn -0.9803 -0.1916 -0.0476
vn -0.2801 -0.0399 -0.9591
vn -0.3154 -0.0234 -0.9486
vn 0.1145 0.0666 -0.9912
vn -0.0879 0.0358 -0.9955
vn 0.0922 0.2956 -0.9508
vn -0.1955 0.1476 -0.9695
vn 0.0312 0.1841 -0.9824
vn -0.2537 0.0968 -0.9624
vn -0.9993 0.0347 -0.0128
vn -0.9977 -0.0199 -0.0655
vn -0.9967 -0.0807 -0.0089
vn -0.9927 0.0062 -0.1200
vn -0.9950 0.0979 -0.0173
vn -0.9944 0.0388 -0.0984
vn -0.9990 0.0313 -0.0323
vn -0.9996 0.0053 -0.0277
vn -0.1324 0.9907 -0.0318
vn -0.0138 0.9985 -0.0519
vn -0.1950 0.9807 -0.0159
vn -0.1902 0.9813 0.0301
vn -0.1019 0.9947 -0.0147
vn -0.0368 0.9992 -0.0143
vn -0.0041 0.9994 -0.0355
vn 0.0533 0.9984 -0.0208
vn 0.9998 -0.0133 -0.0173
vn 0.9839 -0.1760 0.0295
vn 0.9994 -0.0262 0.0208
vn 0.9993 -0.0370 0.0049
vn 0.9924 -0.1187 -0.0321
vn 0.9776 -0.2094 -0.0180
vn 0.9967 -0.0057 -0.0807
vn 0.9945 0.1004 -0.0298
vn -0.0188 -0.1079 0.9940
vn 0.0061 -0.0667 0.9977
vn -0.0251 0.0025 0.9997
vn 0.0981 -0.0694 0.9927
vn 0.0508 -0.0002 0.9987
vn 0.1362 -0.0814 0.9873
vn 0.1722 0.1339 0.9759
vn 0.1449 0.0493 0.9882
usemtl None
s 1
f 150/1/1 94/2/2 4/3/3 33/4/4
f 141/5/5 76/6/6 18/7/7 84/8/8
f 132/9/9 37/10/10 5/11/11 93/12/12
f 123/13/13 40/14/14 12/15/15 48/16/16
f 114/17/17 58/18/18 24/19/19 66/20/20
f 1/21/21 2/22/22 3/23/23
f 4/24/3 5/25/11 6/26/24
f 7/27/25 8/28/26 9/29/27
f 10/30/28 11/31/29 12/15/15
f 13/32/30 14/33/31 15/34/32
f 16/35/33 17/36/34 18/7/7
f 19/37/35 20/38/36 21/39/37
f 22/40/38 23/41/39 24/42/19
f 27/43/40 1/21/21 3/23/23 28/44/41
f 33/45/4 4/24/3 6/26/24 34/46/42
f 39/47/43 10/30/28 12/15/15 40/14/14
f 45/48/44 9/49/27 8/50/26 46/51/45
f 51/52/46 7/53/25 9/54/27 52/55/47
f 57/56/48 22/57/38 24/58/19 58/59/18
f 63/60/49 21/39/37 20/38/36 64/61/50
f 69/62/51 19/37/35 21/39/37 70/63/52
f 75/64/53 16/35/33 18/7/7 76/6/6
f 81/65/54 15/34/32 14/33/31 82/66/55
f 87/67/56 13/68/30 15/69/32 88/70/57
f 93/12/12 5/11/11 4/71/3 94/72/2
f 105/73/58 67/74/59 13/68/30 87/67/56
f 27/43/40 99/75/60 85/76/61 1/21/21
f 99/75/60 102/77/62 86/78/63 85/76/61
f 102/77/62 105/73/58 87/67/56 86/78/63
f 7/79/25 51/80/46 97/81/64 25/82/65
f 25/82/65 97/81/64 98/83/66 26/84/67
f 26/84/67 98/83/66 99/75/60 27/43/40
f 51/80/46 50/85/68 100/86/69 97/81/64
f 97/81/64 100/86/69 101/87/70 98/83/66
f 98/83/66 101/87/70 102/77/62 99/75/60
f 50/85/68 49/88/71 103/89/72 100/86/69
f 100/86/69 103/89/72 104/90/73 101/87/70
f 101/87/70 104/90/73 105/73/58 102/77/62
f 49/88/71 19/91/35 69/92/51 103/89/72
f 103/89/72 69/92/51 68/93/74 104/90/73
f 104/90/73 68/93/74 67/74/59 105/73/58
f 16/94/33 91/95/75 96/96/76 17/97/34
f 91/95/75 92/98/77 95/99/78 96/96/76
f 92/98/77 93/12/12 94/72/2 95/99/78
f 1/21/21 85/76/61 90/100/79 2/22/22
f 85/76/61 86/78/63 89/101/80 90/100/79
f 86/78/63 87/67/56 88/70/57 89/101/80
f 17/36/34 79/102/81 84/8/8 18/7/7
f 79/102/81 80/103/82 83/104/83 84/8/8
f 80/103/82 81/65/54 82/66/55 83/104/83
f 22/40/38 73/105/84 78/106/85 23/41/39
f 73/105/84 74/107/86 77/108/87 78/106/85
f 74/107/86 75/64/53 76/6/6 77/108/87
f 13/32/30 67/109/59 72/110/88 14/33/31
f 67/109/59 68/111/74 71/112/89 72/110/88
f 68/111/74 69/62/51 70/63/52 71/112/89
f 23/41/39 61/113/90 66/114/20 24/42/19
f 61/113/90 62/115/91 65/116/92 66/114/20
f 62/115/91 63/60/49 64/61/50 65/116/92
f 10/117/28 55/118/93 60/119/94 11/120/29
f 55/118/93 56/121/95 59/122/96 60/119/94
f 56/123/95 57/56/48 58/59/18 59/124/96
f 19/125/35 49/126/71 54/127/97 20/128/36
f 49/126/71 50/129/68 53/130/98 54/127/97
f 50/129/68 51/52/46 52/55/47 53/130/98
f 11/31/29 43/131/99 48/16/16 12/15/15
f 43/131/99 44/132/100 47/133/101 48/16/16
f 44/132/100 45/48/44 46/51/45 47/133/101
f 5/25/11 37/134/10 42/135/102 6/26/24
f 37/134/10 38/136/103 41/137/104 42/135/102
f 38/136/103 39/47/43 40/14/14 41/137/104
f 2/138/22 31/139/105 36/140/106 3/141/23
f 31/139/105 32/142/107 35/143/108 36/140/106
f 32/142/107 33/45/4 34/46/42 35/143/108
f 7/144/25 25/145/65 30/146/109 8/50/26
f 25/145/65 26/147/67 29/148/110 30/146/109
f 26/84/67 27/43/40 28/44/41 29/149/110
f 54/127/97 108/150/111 64/151/50 20/128/36
f 108/150/111 111/152/112 65/153/92 64/151/50
f 111/152/112 114/17/17 66/20/20 65/153/92
f 9/54/27 45/154/44 106/155/113 52/55/47
f 52/55/47 106/155/113 107/156/114 53/130/98
f 53/130/98 107/156/114 108/150/111 54/127/97
f 45/154/44 44/157/100 109/158/115 106/155/113
f 106/155/113 109/158/115 110/159/116 107/156/114
f 107/156/114 110/159/116 111/152/112 108/150/111
f 44/157/100 43/160/99 112/161/117 109/158/115
f 109/158/115 112/161/117 113/162/118 110/159/116
f 110/159/116 113/162/118 114/17/17 111/152/112
f 43/160/99 11/120/29 60/119/94 112/161/117
f 112/161/117 60/119/94 59/122/96 113/162/118
f 113/162/118 59/122/96 58/18/18 114/17/17
f 30/146/109 117/163/119 46/51/45 8/50/26
f 117/163/119 120/164/120 47/133/101 46/51/45
f 120/164/120 123/13/13 48/16/16 47/133/101
f 3/141/23 36/140/106 115/165/121 28/166/41
f 28/166/41 115/165/121 116/167/122 29/148/110
f 29/148/110 116/167/122 117/163/119 30/146/109
f 36/140/106 35/143/108 118/168/123 115/165/121
f 115/165/121 118/168/123 119/169/124 116/167/122
f 116/167/122 119/169/124 120/164/120 117/163/119
f 35/143/108 34/46/42 121/170/125 118/168/123
f 118/168/123 121/170/125 122/171/126 119/169/124
f 119/169/124 122/171/126 123/13/13 120/164/120
f 34/46/42 6/26/24 42/135/102 121/170/125
f 121/170/125 42/135/102 41/137/104 122/171/126
f 122/171/126 41/137/104 40/14/14 123/13/13
f 75/172/53 126/173/127 91/95/75 16/94/33
f 126/173/127 129/174/128 92/98/77 91/95/75
f 129/174/128 132/9/9 93/12/12 92/98/77
f 22/57/38 57/56/48 124/175/129 73/176/84
f 73/176/84 124/175/129 125/177/130 74/178/86
f 74/178/86 125/177/130 126/173/127 75/172/53
f 57/56/48 56/123/95 127/179/131 124/175/129
f 124/175/129 127/179/131 128/180/132 125/177/130
f 125/177/130 128/180/132 129/174/128 126/173/127
f 56/123/95 55/181/93 130/182/133 127/179/131
f 127/179/131 130/182/133 131/183/134 128/180/132
f 128/180/132 131/183/134 132/9/9 129/174/128
f 55/181/93 10/184/28 39/185/43 130/182/133
f 130/182/133 39/185/43 38/186/103 131/183/134
f 131/183/134 38/186/103 37/10/10 132/9/9
f 72/110/88 135/187/135 82/66/55 14/33/31
f 135/187/135 138/188/136 83/104/83 82/66/55
f 138/188/136 141/5/5 84/8/8 83/104/83
f 21/39/37 63/60/49 133/189/137 70/63/52
f 70/63/52 133/189/137 134/190/138 71/112/89
f 71/112/89 134/190/138 135/187/135 72/110/88
f 63/60/49 62/115/91 136/191/139 133/189/137
f 133/189/137 136/191/139 137/192/140 134/190/138
f 134/190/138 137/192/140 138/188/136 135/187/135
f 62/115/91 61/113/90 139/193/141 136/191/139
f 136/191/139 139/193/141 140/194/142 137/192/140
f 137/192/140 140/194/142 141/5/5 138/188/136
f 61/113/90 23/41/39 78/106/85 139/193/141
f 139/193/141 78/106/85 77/108/87 140/194/142
f 140/194/142 77/108/87 76/6/6 141/5/5
f 90/195/79 144/196/143 31/197/105 2/198/22
f 144/196/143 147/199/144 32/200/107 31/197/105
f 147/199/144 150/1/1 33/4/4 32/200/107
f 15/201/32 81/202/54 142/203/145 88/204/57
f 88/204/57 142/203/145 143/205/146 89/206/80
f 89/206/80 143/205/146 144/196/143 90/195/79
f 81/202/54 80/207/82 145/208/147 142/203/145
f 142/203/145 145/208/147 146/209/148 143/205/146
f 143/205/146 146/209/148 147/199/144 144/196/143
f 80/207/82 79/210/81 148/211/149 145/208/147
f 145/208/147 148/211/149 149/212/150 146/209/148
f 146/209/148 149/212/150 150/1/1 147/199/144
f 79/210/81 17/213/34 96/214/76 148/211/149
f 148/211/149 96/214/76 95/215/78 149/212/150
f 149/212/150 95/215/78 94/2/2 150/1/1
