# Blender v2.79 (sub 0) OBJ File: 'WallTest.blend'
# www.blender.org
mtllib WallTest.mtl
o Cube_Cube.001
v -1.000000 0.000000 1.000000
v -1.000000 4.000000 1.000000
v -1.000000 0.000000 -1.000000
v -1.000000 4.000000 -1.000000
v 1.000000 0.000000 1.000000
v 1.000000 4.000000 1.000000
v 1.000000 0.000000 -1.000000
v 1.000000 4.000000 -1.000000
v 1.000000 2.000000 -1.000000
v 1.000000 2.000000 1.000000
v 1.000000 1.557586 -1.000000
v 1.000000 0.809651 -1.000000
v 1.000000 0.500000 -1.000000
v 1.000000 0.000000 0.366360
v 1.000000 0.000000 0.125000
v 1.000000 0.000000 -0.500000
v 1.000000 1.557586 1.000000
v 1.000000 1.000000 1.000000
v 1.000000 0.500000 1.000000
v 1.000000 2.000000 0.709750
v 1.000000 2.000000 0.000000
v 1.000000 2.000000 -0.588566
v 1.000000 0.500000 0.125000
v 1.000000 0.500000 0.366360
v 1.000000 0.809651 -0.500000
v 1.000000 0.809651 0.124374
v 1.000000 1.000000 0.366000
v 1.000000 1.557586 -0.588566
v 1.000000 1.557586 0.000000
v 1.000000 1.557586 0.709750
v 1.000000 1.557586 0.556701
v 1.000000 2.000000 0.130853
v 1.000000 0.809651 -0.187813
v 1.000000 1.557586 -0.186731
v 1.000000 1.201434 -0.186618
v 1.000000 1.201434 -0.544283
v 1.000000 1.201434 -1.000000
v 1.000000 0.809651 -0.543944
v 1.250000 0.500000 1.000000
v 1.250000 0.000000 1.000000
v 1.250000 0.000000 0.366360
v 1.250000 1.000000 1.000000
v 1.250000 0.500000 0.366360
v 1.250000 1.000000 0.366000
v 1.300000 0.500000 -1.000000
v 1.300000 0.000000 -1.000000
v 1.300000 0.000000 -0.500000
v 1.300000 0.809651 -1.000000
v 1.300000 0.000000 0.125000
v 1.300000 0.500000 -0.500000
v 1.300000 0.500000 0.125000
v 1.300000 0.809651 -0.543944
v 1.300000 0.809651 -0.500000
v 1.300000 0.809651 -0.187813
v 1.300000 0.809651 0.124374
v 1.200000 1.201434 -1.000000
v 1.200000 0.809651 -1.000000
v 1.200000 0.809651 -0.543944
v 1.200000 0.809651 -0.500000
v 1.200000 0.809651 -0.187813
v 1.200000 1.201434 -0.186618
v 1.200000 1.201434 -0.544283
v 1.200000 2.000000 1.000000
v 1.200000 1.557586 1.000000
v 1.200000 2.000000 0.709750
v 1.200000 1.557586 0.709750
v 1.118749 1.557586 0.556701
v 1.118749 1.557586 0.709750
v 1.118749 2.000000 0.709750
v 1.118749 2.000000 0.130853
v 1.167143 2.000000 0.130853
v 1.167143 2.000000 0.000000
v 1.167143 1.557586 0.000000
v 1.167143 1.557586 0.556701
v 1.084261 2.000000 0.000000
v 1.084261 2.000000 -0.588566
v 1.084261 1.557586 -0.186731
v 1.084261 1.557586 0.000000
v 1.084261 1.557586 -0.588566
v 1.166887 2.000000 -0.588566
v 1.166887 2.000000 -1.000000
v 1.166887 1.557586 -1.000000
v 1.166887 1.557586 -0.588566
v 1.000000 4.000000 -0.331969
v 1.000000 4.000000 0.012374
v 1.000000 3.555161 -1.000000
v 1.000000 3.207249 -1.000000
v 1.000000 3.555161 1.000000
v 1.000000 3.200354 1.000000
v 1.000000 2.000000 -0.333333
v 1.000000 2.000000 0.333333
v 1.000000 3.555161 0.012374
v 1.000000 3.555161 -0.331969
v 1.000000 3.207249 0.333333
v 1.000000 3.207249 -0.333333
v 1.205139 4.000000 -1.000000
v 1.205139 4.000000 -0.331969
v 1.205139 3.555161 -1.000000
v 1.205139 3.555161 -0.331969
v 1.128969 4.000000 -0.331969
v 1.128969 4.000000 0.012374
v 1.128969 3.555161 0.012374
v 1.128969 3.555161 -0.331969
v 1.208950 4.000000 0.012374
v 1.208950 4.000000 1.000000
v 1.208950 3.555161 1.000000
v 1.208950 3.555161 0.012374
v 1.066491 3.207249 -1.000000
v 1.066491 2.000000 -1.000000
v 1.066491 2.000000 -0.333333
v 1.066491 2.000000 0.333333
v 1.066491 3.207249 -0.333333
v 1.066491 3.207249 0.333333
v 1.153902 3.200354 1.000000
v 1.153902 2.000000 1.000000
v 1.153902 2.000000 0.333333
v 1.153902 3.207249 0.333333
v -1.000000 2.000000 1.000000
v -1.000000 2.000000 -1.000000
vt 0.000000 0.000000
vt 0.000000 0.000000
vt 0.000000 0.000000
vt 0.000000 0.000000
vt 0.000000 0.000000
vt 0.000000 0.000000
vt 0.000000 0.000000
vt 0.000000 0.000000
vt 0.000000 0.000000
vt 0.000000 0.000000
vt 0.000000 0.000000
vt 0.000000 0.000000
vt 0.000000 0.000000
vt 0.000000 0.000000
vt 0.000000 0.000000
vt 0.000000 0.000000
vt 0.000000 0.000000
vt 0.000000 0.000000
vt 0.000000 0.000000
vt 0.000000 0.000000
vt 0.000000 0.000000
vt 0.000000 0.000000
vt 0.000000 0.000000
vt 0.000000 0.000000
vt 0.000000 0.000000
vt 0.000000 0.000000
vt 0.000000 0.000000
vt 0.000000 0.000000
vt 0.000000 0.000000
vt 0.000000 0.000000
vt 0.000000 0.000000
vt 0.000000 0.000000
vt 0.000000 0.000000
vt 0.000000 0.000000
vt 0.000000 0.000000
vt 0.000000 0.000000
vt 0.000000 0.000000
vt 0.000000 0.000000
vt 0.000000 0.000000
vt 0.000000 0.000000
vt 0.592416 0.709964
vt 0.492416 0.709964
vt 0.392416 0.709964
vt 0.392416 0.509964
vt 0.492416 0.509964
vt 0.592416 0.509964
vt 1.003088 -0.002009
vt 1.003088 0.997991
vt 0.003088 0.997991
vt 0.003088 0.776784
vt 0.003088 0.598708
vt 0.003088 0.402816
vt 0.003088 0.247991
vt 0.003088 -0.002009
vt 0.157146 0.891930
vt 0.157146 0.935531
vt 0.117724 0.935531
vt 0.117724 0.891930
vt 0.991417 -0.009286
vt 0.991417 0.240714
vt 0.991417 0.490714
vt 0.991417 0.769507
vt 0.991417 0.990714
vt -0.008582 0.990715
vt -0.008583 -0.009285
vt 0.393261 0.517936
vt 0.593261 0.517936
vt 0.593261 0.567936
vt 0.593261 0.630436
vt 0.593261 0.654572
vt 0.593261 0.717936
vt 0.393261 0.717936
vt 0.374351 0.500000
vt 0.145125 0.752029
vt 0.000000 0.752029
vt 0.000000 0.500000
vt 0.496763 0.000000
vt 0.496763 0.250000
vt 0.374171 0.250000
vt 0.374171 0.000000
vt 0.497076 0.433501
vt 0.374171 0.000000
vt 0.374171 0.250000
vt 0.000000 0.250000
vt 0.000000 0.000000
vt 0.374351 0.500000
vt 0.000000 0.500000
vt 0.500000 0.752029
vt 0.221650 0.752029
vt 0.190040 0.778174
vt 0.190040 0.859023
vt 0.157146 0.859023
vt 0.157146 0.778174
vt 1.000000 0.000000
vt 1.000000 0.250000
vt 0.750000 0.250000
vt 0.750000 0.000000
vt 0.496763 0.250000
vt 0.496763 0.000000
vt 1.000000 0.433501
vt 0.771972 0.433501
vt 0.750000 0.433501
vt 0.622582 0.433501
vt 0.497076 0.433501
vt 1.000000 0.752029
vt 0.794283 0.752029
vt 0.593366 0.752029
vt 0.621985 0.623657
vt 0.772141 0.623657
vt 1.000000 0.623657
vt 0.622582 0.433501
vt 1.000000 0.433501
vt 1.000000 0.623657
vt 0.772141 0.623657
vt 0.771972 0.433501
vt 0.621985 0.623657
vt 0.622582 0.433501
vt 0.750000 0.433501
vt 0.145125 0.752029
vt 0.145125 1.000000
vt 0.000000 1.000000
vt 0.000000 0.752029
vt 0.157146 0.959834
vt 0.157146 0.916233
vt 0.196567 0.916233
vt 0.196567 0.959834
vt 0.107321 0.887903
vt 0.107321 0.944939
vt 0.067900 0.944939
vt 0.067900 0.887903
vt 0.157146 0.916233
vt 0.157146 0.859023
vt 0.196567 0.859023
vt 0.196567 0.916233
vt 0.067900 0.803887
vt 0.067900 0.890972
vt 0.034955 0.890972
vt 0.034955 0.803887
vt 0.221650 0.752029
vt 0.434574 1.000000
vt 0.145125 1.000000
vt 0.145125 0.752029
vt 0.110333 0.889437
vt 0.110333 0.859270
vt 0.133740 0.859270
vt 0.133740 0.889437
vt 0.157146 0.778174
vt 0.157146 0.891930
vt 0.133740 0.891930
vt 0.133740 0.778174
vt 0.434574 1.000000
vt 0.221650 0.752029
vt 0.500000 0.752029
vt 0.500000 1.000000
vt 0.100845 0.778174
vt 0.100845 0.887903
vt 0.067900 0.887903
vt 0.067900 0.778174
vt 0.034955 0.934573
vt 0.034955 0.890972
vt 0.067900 0.890972
vt 0.067900 0.934573
vt 0.067900 0.778174
vt 0.034955 0.778174
vt 0.794283 0.752029
vt 0.794283 1.000000
vt 0.500000 1.000000
vt 0.500000 0.752029
vt 0.593366 0.752029
vt 0.229783 0.859023
vt 0.229783 0.974679
vt 0.213175 0.974679
vt 0.213175 0.859023
vt 0.196567 0.975033
vt 0.196567 0.938227
vt 0.213175 0.938227
vt 0.213175 0.975033
vt 0.196567 0.859023
vt 0.213175 0.859023
vt 1.000000 0.752029
vt 1.000000 1.000000
vt 0.794283 1.000000
vt 0.794283 0.752029
vt 0.100845 0.859270
vt 0.100845 0.778174
vt 0.133740 0.778174
vt 0.133740 0.859270
vt 0.190040 0.821775
vt 0.222934 0.778174
vt 0.222934 0.821775
vt 0.067850 0.934573
vt 0.067850 0.978174
vt 0.034955 0.978174
vt 0.034955 0.934573
vt 0.030064 0.776260
vt 0.230064 0.776259
vt 0.230064 0.976259
vt 0.030064 0.976259
vt 0.030064 0.877497
vt 0.030064 0.843063
vt 0.458246 0.199289
vt 0.050799 0.199289
vt 0.050799 0.174354
vt 0.458246 0.174354
vt 0.305039 0.241105
vt 0.305039 0.033806
vt 0.386781 0.033806
vt 0.386781 0.241105
vt 0.468523 0.279033
vt 0.468523 0.360775
vt 0.386781 0.360775
vt 0.386781 0.279033
vt 0.043464 0.197291
vt 0.043464 0.033806
vt 0.141555 0.033806
vt 0.141555 0.197291
vt 0.386781 0.411398
vt 0.386781 0.360775
vt 0.484872 0.360775
vt 0.484872 0.411398
vt 0.043464 0.401646
vt 0.141555 0.401646
vt 0.239645 0.197291
vt 0.239645 0.299366
vt 0.141555 0.299366
vt 0.141555 0.197291
vt 0.239645 0.299757
vt 0.239645 0.150752
vt 0.305039 0.150752
vt 0.305039 0.299757
vt 0.386781 0.241105
vt 0.386781 0.448285
vt 0.305039 0.448285
vt 0.305039 0.241105
vt 0.468523 0.197291
vt 0.386781 0.197291
vt 0.386781 0.197291
vt 0.386781 0.115549
vt 0.468523 0.115549
vt 0.468523 0.197291
vt 0.386781 0.033806
vt 0.468523 0.033806
vt 0.239645 0.182922
vt 0.141555 0.182922
vt 0.239645 0.033806
vt 0.141555 0.033806
vt 0.239645 0.401441
vt 0.239645 0.452064
vt 0.141555 0.452064
vt 0.141555 0.401441
vt 0.386781 0.493140
vt 0.484872 0.493140
vt 0.239645 0.533806
vt 0.141555 0.533806
vt 0.239645 0.033806
vt 0.305039 0.033806
vt 0.239645 0.365151
vt 0.303696 0.365151
vt 0.303696 0.430544
vt 0.239645 0.430544
vt 0.303696 0.365151
vt 0.239645 0.365151
vt 0.239645 0.299757
vt 0.303696 0.299757
vt 0.656050 0.937364
vt 0.011933 0.937364
vt 0.011933 0.917585
vt 0.656050 0.917585
vt 0.665985 0.752729
vt 0.666667 0.622742
vt 1.000000 0.622742
vt 1.000000 0.752729
vt 0.011933 0.877658
vt 0.226390 0.877658
vt 0.226390 0.897805
vt 0.011933 0.897805
vt 0.987322 0.897805
vt 0.655305 0.897805
vt 0.655305 0.885370
vt 0.987322 0.885370
vt 0.000000 0.752729
vt 0.000000 0.619294
vt 0.333333 0.622742
vt 0.493813 0.752729
vt 0.050799 0.473492
vt 0.500801 0.473491
vt 0.500801 0.531205
vt 0.050799 0.531205
vt 0.665985 1.000000
vt 0.665985 0.752729
vt 1.000000 0.752729
vt 1.000000 1.000000
vt 0.440847 0.878026
vt 0.655305 0.878026
vt 0.655305 0.897805
vt 0.440848 0.897805
vt 0.870508 0.937364
vt 0.656050 0.937364
vt 0.656050 0.917585
vt 0.870508 0.917585
vt 0.656050 0.917585
vt 0.011933 0.917585
vt 0.011933 0.897805
vt 0.656050 0.897805
vt 0.493813 1.000000
vt 0.493813 0.752729
vt 0.665985 0.752729
vt 0.665985 1.000000
vt 0.988067 0.910240
vt 0.656050 0.910240
vt 0.656050 0.897805
vt 0.988067 0.897805
vt 0.000000 1.000000
vt 0.000000 0.752729
vt 0.493813 0.752729
vt 0.493813 1.000000
vt 0.964204 0.977658
vt 0.011933 0.977658
vt 0.011933 0.957511
vt 0.964204 0.957511
vt 0.011933 0.937364
vt 0.964204 0.937364
vt 0.964204 0.957511
vt 0.011933 0.957511
vt 0.226390 0.877658
vt 0.440847 0.877658
vt 0.440847 0.897805
vt 0.226390 0.897805
vt 0.666667 0.622742
vt 0.666667 0.000000
vt 1.000000 0.000000
vt 1.000000 0.622742
vt 0.333333 0.622742
vt 0.333333 0.000000
vt 0.500799 0.275417
vt 0.950799 0.275417
vt 0.950799 0.300352
vt 0.500799 0.300352
vt 0.050799 0.275418
vt 0.050799 0.300352
vt 0.000000 0.619294
vt 0.000000 0.000000
vt 0.333333 0.000000
vt 0.333333 0.622742
vt 0.500799 0.473491
vt 0.050799 0.473491
vt 0.050799 0.415778
vt 0.500799 0.415778
vt 0.458246 0.415778
vt 0.050799 0.415778
vt 0.050799 0.358065
vt 0.458246 0.358065
vt 0.050799 0.300352
vt 0.455919 0.300352
vt 0.455919 0.358065
vt 0.050799 0.358065
vt 0.001649 -0.003700
vt 1.001649 -0.003701
vt 1.001649 0.596476
vt 1.001649 0.773879
vt 1.001649 0.996299
vt 0.001649 0.996300
vt 0.003989 -0.008403
vt 1.003989 -0.008404
vt 1.003989 0.991596
vt 0.003989 0.991597
vt 0.003989 0.769177
vt 0.003989 0.595221
vn 0.0000 0.0000 1.0000
vn 0.0000 -0.6935 -0.7205
vn 0.0000 -1.0000 0.0000
vn 0.0000 0.0000 -1.0000
vn -1.0000 0.0000 0.0000
vn 1.0000 0.0000 0.0000
vn 0.0000 1.0000 0.0000
vn 0.0000 0.6935 0.7205
vn 0.0000 -0.0007 -1.0000
vn 0.0000 0.0020 1.0000
vn 0.0000 -0.0031 1.0000
vn 0.0000 0.9999 0.0103
usemtl None
s off
f 21/1/1 29/2/1 78/3/1 75/4/1
f 31/5/2 32/6/2 70/7/2 67/8/2
f 25/9/3 38/10/3 58/11/3 59/12/3
f 33/13/3 25/9/3 59/12/3 60/14/3
f 38/10/3 12/15/3 57/16/3 58/11/3
f 20/17/1 30/18/1 68/19/1 69/20/1
f 28/21/4 22/22/4 76/23/4 79/24/4
f 90/25/3 9/26/3 109/27/3 110/28/3
f 93/29/4 84/30/4 100/31/4 103/32/4
f 85/33/1 92/34/1 102/35/1 101/36/1
f 94/37/1 91/38/1 111/39/1 113/40/1
f 91/38/3 90/25/3 110/28/3 111/39/3
usemtl None_frozen_test_2.png
f 1/41/5 118/42/5 2/43/5 4/44/5 119/45/5 3/46/5
f 3/47/4 119/48/4 9/49/4 11/50/4 37/51/4 12/52/4 13/53/4 7/54/4
f 10/55/1 17/56/1 64/57/1 63/58/1
f 5/59/1 19/60/1 18/61/1 17/62/1 10/63/1 118/64/1 1/65/1
f 3/66/3 7/67/3 16/68/3 15/69/3 14/70/3 5/71/3 1/72/3
f 27/73/6 30/74/6 17/75/6 18/76/6
f 15/77/6 23/78/6 24/79/6 14/80/6
f 23/78/6 26/81/6 27/73/6 24/79/6
f 41/82/6 43/83/6 39/84/6 40/85/6
f 43/83/6 44/86/6 42/87/6 39/84/6
f 26/81/6 29/88/6 31/89/6 30/74/6 27/73/6
f 9/90/7 22/91/7 80/92/7 81/93/7
f 46/94/6 45/95/6 50/96/6 47/97/6
f 47/97/6 50/96/6 51/98/6 49/99/6
f 45/95/6 48/100/6 52/101/6 53/102/6 50/96/6
f 50/96/6 53/102/6 54/103/6 55/104/6 51/98/6
f 11/105/6 28/106/6 34/107/6 35/108/6 36/109/6 37/110/6
f 26/81/6 33/111/6 35/108/6 34/107/6 29/88/6
f 57/112/6 56/113/6 62/114/6 58/115/6
f 58/115/6 62/114/6 61/116/6 60/117/6 59/118/6
f 66/119/6 65/120/6 63/121/6 64/122/6
f 30/123/4 20/124/4 65/125/4 66/126/4
f 20/127/7 10/128/7 63/129/7 65/130/7
f 17/131/3 30/132/3 66/133/3 64/134/3
f 32/135/8 31/136/8 74/137/8 71/138/8
f 67/139/6 70/140/6 69/141/6 68/142/6
f 30/143/3 31/144/3 67/145/3 68/146/3
f 32/147/7 20/148/7 69/149/7 70/150/7
f 71/151/6 74/152/6 73/153/6 72/154/6
f 31/155/3 29/156/3 73/157/3 74/158/3
f 29/159/4 21/160/4 72/161/4 73/162/4
f 21/163/7 32/135/7 71/138/7 72/164/7
f 79/165/6 76/166/6 75/167/6 78/168/6 77/169/6
f 22/170/7 21/171/7 75/172/7 76/173/7
f 29/174/3 34/175/3 77/176/3 78/177/3
f 34/175/3 28/178/3 79/179/3 77/176/3
f 82/180/6 81/181/6 80/182/6 83/183/6
f 28/184/3 11/185/3 82/186/3 83/187/3
f 11/188/4 9/90/4 81/189/4 82/190/4
f 22/191/1 28/192/1 83/193/1 80/194/1
usemtl None_frozen_test.png
f 8/195/7 4/196/7 2/197/7 6/198/7 85/199/7 84/200/7
f 9/201/4 87/202/4 108/203/4 109/204/4
f 27/205/7 18/206/7 42/207/7 44/208/7
f 19/209/1 5/210/1 40/211/1 39/212/1
f 16/213/3 7/214/3 46/215/3 47/216/3
f 13/217/4 12/218/4 48/219/4 45/220/4
f 15/221/3 16/213/3 47/216/3 49/222/3
f 25/223/7 33/224/7 54/225/7 53/226/7
f 37/227/7 36/228/7 62/229/7 56/230/7
f 5/231/3 14/232/3 41/233/3 40/234/3
f 18/235/1 19/209/1 39/212/1 42/236/1
f 14/237/4 24/238/4 43/239/4 41/240/4
f 24/238/9 27/241/9 44/242/9 43/239/9
f 38/243/7 25/223/7 53/226/7 52/244/7
f 12/245/7 38/243/7 52/244/7 48/246/7
f 26/247/10 23/248/10 51/249/10 55/250/10
f 33/224/7 26/247/7 55/250/7 54/225/7
f 7/251/4 13/217/4 45/220/4 46/252/4
f 23/248/1 15/253/1 49/254/1 51/249/1
f 36/228/7 35/255/7 61/256/7 62/229/7
f 12/257/4 37/258/4 56/259/4 57/260/4
f 35/261/11 33/262/11 60/263/11 61/264/11
f 93/265/3 86/266/3 98/267/3 99/268/3
f 93/269/6 95/270/6 87/271/6 86/272/6
f 6/273/1 88/274/1 106/275/1 105/276/1
f 84/277/7 85/278/7 101/279/7 100/280/7
f 88/281/6 89/282/6 94/283/6 92/284/6
f 92/284/6 94/283/6 95/270/6 93/269/6
f 94/285/12 89/286/12 114/287/12 117/288/12
f 97/289/6 99/290/6 98/291/6 96/292/6
f 84/293/1 93/294/1 99/295/1 97/296/1
f 86/297/4 8/298/4 96/299/4 98/300/4
f 8/301/7 84/302/7 97/303/7 96/304/7
f 101/305/6 102/306/6 103/307/6 100/308/6
f 92/309/3 93/310/3 103/311/3 102/312/3
f 105/313/6 106/314/6 107/315/6 104/316/6
f 85/317/7 6/318/7 105/319/7 104/320/7
f 88/321/3 92/322/3 107/323/3 106/324/3
f 92/325/4 85/326/4 104/327/4 107/328/4
f 112/329/6 110/330/6 109/331/6 108/332/6
f 113/333/6 111/334/6 110/330/6 112/329/6
f 95/335/7 94/336/7 113/337/7 112/338/7
f 87/339/7 95/335/7 112/338/7 108/340/7
f 114/341/6 115/342/6 116/343/6 117/344/6
f 10/345/3 91/346/3 116/347/3 115/348/3
f 91/349/4 94/350/4 117/351/4 116/352/4
f 89/353/1 10/354/1 115/355/1 114/356/1
f 118/357/1 10/358/1 89/359/1 88/360/1 6/361/1 2/362/1
f 9/363/4 119/364/4 4/365/4 8/366/4 86/367/4 87/368/4
