# Blender v2.79 (sub 0) OBJ File: 'Brick_1x2_Deformed_2.blend'
# www.blender.org
mtllib Brick_1x2_Deformed_2.mtl
o Cube_Cube.001
v -0.265000 -0.315000 0.580000
v -0.265000 -0.265000 0.630000
v -0.315000 -0.265000 0.580000
v -0.226398 0.272348 0.628514
v -0.226398 0.322348 0.578514
v -0.276398 0.272348 0.578514
v -0.265000 -0.315000 -0.580000
v -0.315000 -0.265000 -0.580000
v -0.265000 -0.265000 -0.630000
v -0.265000 0.283498 -0.580000
v -0.265000 0.233498 -0.630000
v -0.315000 0.233498 -0.580000
v 0.265000 -0.315000 0.580000
v 0.315000 -0.265000 0.580000
v 0.265000 -0.265000 0.630000
v 0.291690 0.322882 0.574319
v 0.291690 0.272882 0.624319
v 0.341690 0.272882 0.574319
v 0.265000 -0.315000 -0.580000
v 0.265000 -0.265000 -0.630000
v 0.315000 -0.265000 -0.580000
v 0.241518 0.315000 -0.574050
v 0.291518 0.265000 -0.574050
v 0.241518 0.265000 -0.624050
v -0.265000 -0.315000 -0.193333
v -0.265000 -0.315000 0.193333
v -0.315000 -0.265000 0.193333
v -0.315000 -0.265000 -0.193333
v -0.265000 -0.088333 0.630000
v -0.265000 0.088333 0.630000
v -0.315000 0.088333 0.580000
v -0.315000 -0.088333 0.580000
v -0.195761 0.289245 0.258607
v -0.233972 0.266012 -0.222056
v -0.267662 0.152050 -0.237903
v -0.284048 0.239245 0.263996
v -0.253401 0.088333 -0.611727
v -0.265000 -0.088333 -0.630000
v -0.315000 -0.088333 -0.580000
v -0.303401 0.088333 -0.561727
v 0.088333 -0.315000 -0.580000
v -0.088333 -0.315000 -0.580000
v -0.088333 -0.265000 -0.630000
v 0.088333 -0.265000 -0.630000
v -0.088333 0.315000 -0.580000
v 0.088333 0.315000 -0.580000
v 0.088333 0.265000 -0.630000
v -0.088333 0.265000 -0.630000
v 0.315000 0.088333 -0.580000
v 0.315000 -0.088333 -0.580000
v 0.265000 -0.088333 -0.630000
v 0.265000 0.088333 -0.630000
v 0.265000 -0.315000 0.193333
v 0.265000 -0.315000 -0.193333
v 0.315000 -0.265000 -0.193333
v 0.315000 -0.265000 0.193333
v 0.265000 0.279374 -0.193333
v 0.256622 0.315000 0.193333
v 0.306622 0.265000 0.193333
v 0.315000 0.229374 -0.193333
v 0.265000 0.088333 0.630000
v 0.265000 -0.088333 0.630000
v 0.315000 -0.088333 0.580000
v 0.315000 0.088333 0.580000
v -0.088333 -0.315000 0.580000
v 0.088333 -0.315000 0.580000
v 0.088333 -0.265000 0.630000
v -0.088333 -0.265000 0.630000
v 0.090494 0.309671 0.602136
v -0.088333 0.315000 0.572731
v -0.088333 0.265000 0.630000
v 0.090494 0.265000 0.652136
v -0.076168 -0.306462 -0.201755
v -0.069152 -0.301542 0.277167
v 0.135237 -0.333168 -0.145780
v 0.043402 -0.323040 0.134442
v -0.138949 -0.123462 -0.669622
v 0.038368 -0.034729 -0.604229
v -0.126304 0.028658 -0.640818
v 0.079866 0.089328 -0.636943
v -0.299813 -0.036130 0.209977
v -0.315949 -0.095660 -0.207884
v -0.325934 0.076491 0.252386
v -0.290720 0.028682 -0.216554
v 0.086970 0.313231 -0.194579
v 0.099382 0.315908 0.204128
v -0.103100 0.294667 -0.228302
v -0.082047 0.335076 0.240603
v 0.319316 -0.128016 -0.135199
v 0.350560 -0.076079 0.210078
v 0.272127 0.107168 -0.211538
v 0.274577 0.097647 0.237826
v 0.117189 -0.076076 0.595871
v -0.152115 -0.156667 0.607796
v 0.079661 0.117714 0.619270
v -0.065256 0.056579 0.636691
vt 0.092857 0.774188
vt 0.003371 0.761952
vt 0.000219 0.688727
vt 0.079236 0.668253
vt 0.682012 0.460611
vt 0.750189 0.437422
vt 0.750984 0.639754
vt 0.675110 0.642389
vt 0.931143 0.464787
vt 0.981288 0.472314
vt 0.998023 0.641418
vt 0.938978 0.640709
vt 0.413315 0.438933
vt 0.468475 0.437513
vt 0.500293 0.642119
vt 0.439651 0.635072
vt 0.604748 0.880337
vt 0.601161 0.973505
vt 0.535429 0.973501
vt 0.525305 0.879804
vt 0.252556 0.668276
vt 0.230966 0.668252
vt 0.231085 0.641757
vt 0.503372 0.000000
vt 0.525305 0.025545
vt 0.500293 0.027040
vt 0.753220 0.665868
vt 0.774689 0.692387
vt 0.752874 0.692410
vt 0.525305 0.640623
vt 0.505048 0.668071
vt 0.252556 0.949373
vt 0.231085 0.975892
vt 0.230966 0.949349
vt 0.775981 0.639392
vt 0.754887 0.665864
vt 0.021417 0.615233
vt 0.021472 0.641757
vt 0.000000 0.615238
vt 0.775981 0.029987
vt 0.750984 0.030348
vt 0.754838 0.003428
vt 0.249015 0.205077
vt 0.249015 0.000000
vt 0.270541 0.000006
vt 0.270541 0.205083
vt 0.422689 0.003134
vt 0.419609 0.030175
vt 0.516891 0.435298
vt 0.752874 0.786109
vt 0.774689 0.786086
vt 0.677364 0.665867
vt 0.677017 0.692409
vt 0.601508 1.000000
vt 0.535775 0.999996
vt 0.599923 0.027075
vt 0.525305 0.026921
vt 0.529159 0.000000
vt 0.603777 0.000154
vt 0.021417 0.410155
vt 0.000000 0.410161
vt 0.775185 0.437060
vt 0.155101 0.949350
vt 0.155220 0.975892
vt 0.252556 0.855674
vt 0.230966 0.855650
vt 1.000000 0.667849
vt 0.941057 0.670994
vt 0.116569 0.236311
vt 0.021417 0.205078
vt 0.021417 0.000000
vt 0.097283 0.000000
vt 0.164927 0.160616
vt 0.173149 0.000000
vt 0.249015 0.615232
vt 0.173149 0.615232
vt 0.167934 0.414623
vt 0.249015 0.410155
vt 0.097283 0.615232
vt 0.077122 0.384932
vt 0.775981 0.648080
vt 0.862907 0.659356
vt 0.864748 0.685795
vt 0.777958 0.674511
vt 0.252556 0.761975
vt 0.230966 0.761951
vt 0.000000 0.963509
vt 0.079236 0.949350
vt 0.079355 0.975893
vt 0.000118 0.990052
vt 0.759299 0.232044
vt 0.734302 0.232405
vt 0.000000 0.205084
vt 0.000000 0.000006
vt 0.674542 0.027229
vt 0.678395 0.000308
vt 0.999416 0.026578
vt 0.922918 0.029654
vt 0.923502 0.003076
vt 1.000000 0.000000
vt 0.847227 0.032684
vt 0.847811 0.006106
vt 0.525652 0.665864
vt 0.601508 0.665865
vt 0.601161 0.692407
vt 0.525305 0.692406
vt 0.752874 0.956800
vt 0.748020 0.879800
vt 0.769836 0.879777
vt 0.774689 0.956777
vt 0.519100 0.195366
vt 0.494088 0.196862
vt 0.155101 0.668252
vt 0.155220 0.641758
vt 0.079355 0.641758
vt 0.270541 0.410161
vt 0.270541 0.615238
vt 0.622794 0.814525
vt 0.525305 0.786105
vt 0.698476 0.767496
vt 0.693246 0.848162
vt 0.677017 0.973506
vt 0.283501 0.446702
vt 0.355113 0.451201
vt 0.364515 0.648243
vt 0.289981 0.651604
vt 0.270541 0.036898
vt 0.345075 0.033536
vt 0.374490 0.228460
vt 0.277021 0.241800
vt 0.421366 0.187977
vt 0.785899 0.445509
vt 0.853395 0.448536
vt 0.781679 0.038465
vt 0.853226 0.236967
vt 0.777835 0.240631
vt 0.934666 0.215804
vt 0.975480 0.232714
vt 0.525684 0.437027
vt 0.602728 0.446360
vt 0.600492 0.642235
vt 0.525873 0.642081
vt 0.583046 0.262958
vt 0.525494 0.231974
vt 0.686003 0.222297
vt 0.184498 0.728134
vt 0.149919 0.870971
vt 0.066645 0.851057
vt 0.003319 0.856787
vn 0.0445 -0.0801 0.9958
vn -0.0177 0.3949 0.9185
vn -0.3050 0.3985 0.8649
vn -0.4028 0.0317 0.9147
vn 0.9990 0.0179 -0.0413
vn 0.9543 0.2932 -0.0582
vn 0.9157 0.2773 0.2907
vn 0.9283 -0.0121 0.3716
vn -0.0934 0.9954 -0.0191
vn -0.4680 0.8818 -0.0584
vn -0.3366 0.8938 0.2962
vn -0.0296 0.9384 0.3444
vn -0.9946 0.1035 0.0003
vn -0.9507 0.3074 0.0397
vn -0.9267 0.2452 -0.2847
vn -0.9426 0.0427 -0.3310
vn 0.0240 -0.0158 -0.9996
vn 0.0187 0.3995 -0.9165
vn 0.3392 0.3789 -0.8610
vn 0.3894 0.0156 -0.9209
vn -0.3311 -0.8809 0.3380
vn -0.3179 -0.3179 0.8932
vn -0.8807 -0.3317 0.3382
vn -0.8123 0.4892 0.3175
vn -0.3354 -0.8787 -0.3395
vn -0.8752 -0.3423 -0.3418
vn -0.3768 -0.3768 -0.8462
vn -0.5126 0.8060 -0.2960
vn -0.4050 0.2756 -0.8718
vn 0.3465 -0.8730 0.3433
vn 0.8614 -0.3672 0.3507
vn 0.3177 -0.3177 0.8934
vn 0.3575 0.8866 0.2933
vn 0.3887 0.3148 0.8659
vn 0.3559 -0.8678 -0.3466
vn 0.3281 -0.3281 -0.8858
vn 0.8738 -0.3449 -0.3427
vn 0.3682 0.8744 -0.3160
vn 0.8694 0.3685 -0.3291
vn -0.3594 -0.9332 -0.0019
vn -0.9308 -0.3656 0.0004
vn -0.9236 0.0789 0.3751
vn -0.5914 0.8058 0.0287
vn -0.4663 0.0456 -0.8834
vn -0.9211 0.0638 -0.3841
vn -0.0114 -0.9241 -0.3819
vn 0.0276 -0.4089 -0.9121
vn 0.0200 0.9287 -0.3703
vn 0.9275 0.0321 -0.3723
vn 0.3566 -0.0057 -0.9342
vn 0.4114 -0.9114 -0.0030
vn 0.9138 -0.4060 -0.0088
vn 0.3844 0.9219 -0.0477
vn 0.3270 0.0091 0.9449
vn 0.9179 0.0289 0.3958
vn -0.0139 -0.9232 0.3840
vn -0.0276 -0.3140 0.9490
vn -0.0530 -0.9985 0.0087
vn 0.4020 -0.9156 0.0084
vn -0.0243 -0.9997 -0.0061
vn -0.0085 -0.9259 0.3776
vn -0.0307 -0.9995 0.0026
vn -0.3640 -0.9314 0.0043
vn -0.0056 -0.9207 -0.3902
vn -0.0105 -0.9999 0.0031
vn 0.0006 0.9152 0.4029
vn 0.0040 0.3507 0.9365
vn 0.0159 -0.3092 0.9508
vn 0.3391 -0.0667 0.9384
vn 0.4444 0.8957 -0.0087
vn 0.9605 0.2783 0.0039
vn 0.9020 -0.4316 0.0017
vn 0.9303 0.0491 -0.3635
vn -0.0990 0.9297 -0.3547
vn -0.0564 0.4086 -0.9110
vn 0.0248 -0.3669 -0.9299
vn -0.4433 0.0189 -0.8961
vn -0.8728 0.4849 -0.0555
vn -0.3608 -0.0112 0.9326
vn -0.9264 -0.0106 0.3763
vn -0.9272 -0.3746 0.0046
vn 0.0858 -0.0304 -0.9958
vn -0.0151 -0.0214 -0.9996
vn -0.0223 0.0370 -0.9991
vn -0.9993 0.0368 0.0056
vn -0.9999 -0.0024 -0.0098
vn -0.9959 0.0861 -0.0273
vn 0.0309 0.9994 -0.0179
vn 0.0386 0.9992 -0.0082
vn -0.1400 0.9901 0.0007
vn 0.9965 0.0831 -0.0122
vn 0.9979 0.0611 -0.0191
vn 0.9998 0.0157 0.0138
vn 0.0625 0.0429 0.9971
vn -0.0376 -0.0005 0.9993
vn 0.0080 -0.0925 0.9957
usemtl None
s 1
f 96/1/1 71/2/2 4/3/3 30/4/4
f 92/5/5 59/6/6 18/7/7 64/8/8
f 88/9/9 33/10/10 5/11/11 70/12/12
f 84/13/13 35/14/14 12/15/15 40/16/16
f 80/17/17 47/18/18 24/19/19 52/20/20
f 1/21/21 2/22/22 3/23/23
f 4/24/3 5/25/11 6/26/24
f 7/27/25 8/28/26 9/29/27
f 10/30/28 11/31/29 12/15/15
f 13/32/30 14/33/31 15/34/32
f 16/35/33 17/36/34 18/7/7
f 19/37/35 20/38/36 21/39/37
f 22/40/38 23/41/39 24/42/19
f 26/43/40 1/44/21 3/45/23 27/46/41
f 30/47/4 4/24/3 6/26/24 31/48/42
f 34/49/43 10/30/28 12/15/15 35/14/14
f 38/50/44 9/29/27 8/28/26 39/51/45
f 42/52/46 7/27/25 9/29/27 43/53/47
f 46/54/48 22/55/38 24/19/19 47/18/18
f 50/56/49 21/57/37 20/58/36 51/59/50
f 54/60/51 19/37/35 21/39/37 55/61/52
f 58/62/53 16/35/33 18/7/7 59/6/6
f 62/63/54 15/34/32 14/33/31 63/64/55
f 66/65/56 13/32/30 15/34/32 67/66/57
f 70/12/12 5/11/11 4/67/3 71/68/2
f 76/69/58 53/70/59 13/71/30 66/72/56
f 26/43/40 74/73/60 65/74/61 1/44/21
f 74/73/60 76/69/58 66/72/56 65/74/61
f 7/75/25 42/76/46 73/77/62 25/78/63
f 25/78/63 73/77/62 74/73/60 26/43/40
f 42/76/46 41/79/64 75/80/65 73/77/62
f 73/77/62 75/80/65 76/69/58 74/73/60
f 41/79/64 19/37/35 54/60/51 75/80/65
f 75/80/65 54/60/51 53/70/59 76/69/58
f 16/81/33 69/82/66 72/83/67 17/84/34
f 69/82/66 70/12/12 71/68/2 72/83/67
f 1/21/21 65/85/61 68/86/68 2/22/22
f 65/85/61 66/65/56 67/66/57 68/86/68
f 17/87/34 61/88/69 64/89/8 18/90/7
f 61/88/69 62/63/54 63/64/55 64/89/8
f 22/40/38 57/91/70 60/92/71 23/41/39
f 57/91/70 58/62/53 59/6/6 60/92/71
f 13/71/30 53/70/59 56/93/72 14/94/31
f 53/70/59 54/60/51 55/61/52 56/93/72
f 23/41/39 49/95/73 52/96/20 24/42/19
f 49/95/73 50/56/49 51/59/50 52/96/20
f 10/97/28 45/98/74 48/99/75 11/100/29
f 45/98/74 46/101/48 47/102/18 48/99/75
f 19/103/35 41/104/64 44/105/76 20/106/36
f 41/104/64 42/52/46 43/53/47 44/105/76
f 11/107/29 37/108/77 40/109/16 12/110/15
f 37/108/77 38/50/44 39/51/45 40/109/16
f 5/25/11 33/111/10 36/112/78 6/26/24
f 33/111/10 34/49/43 35/14/14 36/112/78
f 2/22/22 29/113/79 32/114/80 3/23/23
f 29/113/79 30/4/4 31/115/42 32/114/80
f 7/75/25 25/78/63 28/116/81 8/117/26
f 25/78/63 26/43/40 27/46/41 28/116/81
f 44/105/76 78/118/82 51/119/50 20/106/36
f 78/118/82 80/17/17 52/20/20 51/119/50
f 9/29/27 38/50/44 77/120/83 43/53/47
f 43/53/47 77/120/83 78/118/82 44/105/76
f 38/50/44 37/108/77 79/121/84 77/120/83
f 77/120/83 79/121/84 80/17/17 78/118/82
f 37/108/77 11/107/29 48/122/75 79/121/84
f 79/121/84 48/122/75 47/18/18 80/17/17
f 28/123/81 82/124/85 39/125/45 8/126/26
f 82/124/85 84/13/13 40/16/16 39/125/45
f 3/127/23 32/128/80 81/129/86 27/130/41
f 27/130/41 81/129/86 82/124/85 28/123/81
f 32/128/80 31/48/42 83/131/87 81/129/86
f 81/129/86 83/131/87 84/13/13 82/124/85
f 31/48/42 6/26/24 36/112/78 83/131/87
f 83/131/87 36/112/78 35/14/14 84/13/13
f 58/132/53 86/133/88 69/82/66 16/81/33
f 86/133/88 88/9/9 70/12/12 69/82/66
f 22/134/38 46/101/48 85/135/89 57/136/70
f 57/136/70 85/135/89 86/133/88 58/132/53
f 46/101/48 45/98/74 87/137/90 85/135/89
f 85/135/89 87/137/90 88/9/9 86/133/88
f 45/98/74 10/97/28 34/138/43 87/137/90
f 87/137/90 34/138/43 33/10/10 88/9/9
f 56/139/72 90/140/91 63/141/55 14/142/31
f 90/140/91 92/5/5 64/8/8 63/141/55
f 21/57/37 50/56/49 89/143/92 55/144/52
f 55/144/52 89/143/92 90/140/91 56/139/72
f 50/56/49 49/95/73 91/145/93 89/143/92
f 89/143/92 91/145/93 92/5/5 90/140/91
f 49/95/73 23/41/39 60/92/71 91/145/93
f 91/145/93 60/92/71 59/6/6 92/5/5
f 68/86/68 94/146/94 29/113/79 2/22/22
f 94/146/94 96/1/1 30/4/4 29/113/79
f 15/34/32 62/63/54 93/147/95 67/66/57
f 67/66/57 93/147/95 94/146/94 68/86/68
f 62/63/54 61/88/69 95/148/96 93/147/95
f 93/147/95 95/148/96 96/1/1 94/146/94
f 61/88/69 17/87/34 72/149/67 95/148/96
f 95/148/96 72/149/67 71/2/2 96/1/1
