# Blender v2.79 (sub 0) OBJ File: 'Base.blend'
# www.blender.org
mtllib CornerCorridor.mtl
o Plane
v -0.454601 1.000000 -0.272801
v -0.454601 1.000000 0.272801
v -0.454601 1.000000 0.454601
v -0.454601 1.000000 -0.454601
v -0.999900 0.000000 -0.454601
v -0.999900 0.000000 -0.272801
v -0.999900 0.000000 0.272801
v -0.999900 0.000000 0.454601
v -0.454601 1.000000 -0.999900
v -0.272801 1.000000 -0.999900
v 0.272801 1.000000 -0.999900
v 0.454601 1.000000 -0.999900
v -0.999900 1.000000 0.454601
v -0.999900 1.000000 0.272801
v -0.999900 1.000000 -0.272801
v -0.999900 1.000000 -0.454601
v 0.454601 0.000000 -0.999900
v 0.272801 0.000000 -0.999900
v -0.272801 0.000000 -0.999900
v -0.454601 0.000000 -0.999900
v -0.454601 0.000000 0.454601
v -0.454601 0.000000 0.272801
v -0.454601 0.000000 -0.272801
v -0.454601 0.000000 -0.454601
v -0.272801 0.000000 0.454601
v -0.272801 0.000000 0.272801
v -0.272801 0.000000 -0.272801
v -0.272801 0.000000 -0.454601
v 0.272801 0.000000 0.454601
v 0.272801 0.000000 0.272801
v 0.272801 0.000000 -0.272801
v 0.272801 0.000000 -0.454601
v 0.454601 0.000000 0.454601
v 0.454601 0.000000 0.272801
v 0.454601 0.000000 -0.272801
v 0.454601 0.000000 -0.454601
v -0.272801 1.000000 -0.454601
v -0.272801 1.000000 0.454601
v -0.272801 1.000000 0.272801
v -0.272801 1.000000 -0.272801
v 0.272801 1.000000 -0.454601
v 0.272801 1.000000 0.454601
v 0.272801 1.000000 0.272801
v 0.272801 1.000000 -0.272801
v 0.454601 1.000000 -0.454601
v 0.454601 1.000000 0.454601
v 0.454601 1.000000 0.272801
v 0.454601 1.000000 -0.272801
vn 0.0000 1.0000 0.0000
vn 1.0000 0.0000 0.0000
vn -1.0000 0.0000 0.0000
vn 0.0000 0.0000 1.0000
vn 0.0000 0.0000 -1.0000
usemtl None
s off
f 44//1 48//1 45//1 41//1
f 43//1 47//1 48//1 44//1
f 36//2 17//2 12//2 45//2
f 28//1 32//1 18//1 19//1
f 20//3 24//3 4//3 9//3
f 42//1 46//1 47//1 43//1
f 5//3 6//3 15//3 16//3
f 7//1 22//1 23//1 6//1
f 6//4 23//4 1//4 15//4
f 38//1 42//1 43//1 39//1
f 30//5 26//5 39//5 43//5
f 22//1 26//1 27//1 23//1
f 32//3 31//3 44//3 41//3
f 1//1 40//1 37//1 4//1
f 19//5 20//5 9//5 10//5
f 26//1 30//1 31//1 27//1
f 27//1 31//1 32//1 28//1
f 3//1 38//1 39//1 2//1
f 22//5 7//5 14//5 2//5
f 25//4 29//4 42//4 38//4
f 31//3 30//3 43//3 44//3
f 15//1 1//1 4//1 16//1
f 13//1 3//1 2//1 14//1
f 41//1 45//1 12//1 11//1
f 4//1 37//1 10//1 9//1
f 24//5 5//5 16//5 4//5
f 27//2 28//2 37//2 40//2
f 21//4 25//4 38//4 3//4
f 7//3 8//3 13//3 14//3
f 33//2 34//2 47//2 46//2
f 29//4 33//4 46//4 42//4
f 18//3 32//3 41//3 11//3
f 26//5 22//5 2//5 39//5
f 34//2 35//2 48//2 47//2
f 23//4 27//4 40//4 1//4
f 35//2 36//2 45//2 48//2
f 17//5 18//5 11//5 12//5
f 28//2 19//2 10//2 37//2
f 8//4 21//4 3//4 13//4
