# Blender v2.79 (sub 0) OBJ File: 'Base.blend'
# www.blender.org
mtllib CornerRoom.mtl
o Plane
v 0.272801 1.000000 0.272801
v 0.272801 1.000000 0.454601
v -0.999900 0.000000 -0.999900
v 0.272801 1.000000 -0.454601
v -0.999900 0.000000 -0.454601
v -0.999900 0.000000 -0.272801
v -0.999900 0.000000 0.272801
v -0.999900 0.000000 0.454601
v -0.272801 1.000000 0.272801
v -0.272801 1.000000 0.454601
v -0.454601 1.000000 0.272801
v -0.454601 1.000000 0.454601
v 0.272801 1.000000 -0.999900
v 0.454601 1.000000 -0.999900
v -0.999900 1.000000 0.454601
v -0.999900 1.000000 0.272801
v 0.454601 0.000000 -0.999900
v 0.272801 0.000000 -0.999900
v -0.272801 0.000000 -0.999900
v -0.454601 0.000000 -0.999900
v -0.454601 0.000000 0.454601
v -0.454601 0.000000 0.272801
v -0.454601 0.000000 -0.272801
v -0.454601 0.000000 -0.454601
v -0.272801 0.000000 0.454601
v -0.272801 0.000000 0.272801
v -0.272801 0.000000 -0.272801
v -0.272801 0.000000 -0.454601
v 0.272801 0.000000 0.454601
v 0.272801 0.000000 0.272801
v 0.272801 0.000000 -0.272801
v 0.272801 0.000000 -0.454601
v 0.454601 0.000000 0.454601
v 0.454601 0.000000 0.272801
v 0.454601 0.000000 -0.272801
v 0.454601 0.000000 -0.454601
v 0.272801 1.000000 -0.272801
v 0.454601 1.000000 -0.454601
v 0.454601 1.000000 0.454601
v 0.454601 1.000000 0.272801
v 0.454601 1.000000 -0.272801
vn 1.0000 0.0000 0.0000
vn 0.0000 1.0000 0.0000
vn -1.0000 0.0000 0.0000
vn 0.0000 0.0000 1.0000
vn 0.0000 0.0000 -1.0000
usemtl None
s off
f 33//1 34//1 40//1 39//1
f 5//2 24//2 20//2 3//2
f 24//2 28//2 19//2 20//2
f 28//2 32//2 18//2 19//2
f 7//3 8//3 15//3 16//3
f 21//4 25//4 10//4 12//4
f 36//1 17//1 14//1 38//1
f 7//2 22//2 23//2 6//2
f 6//2 23//2 24//2 5//2
f 37//2 41//2 38//2 4//2
f 30//5 26//5 9//5 1//5
f 22//2 26//2 27//2 23//2
f 23//2 27//2 28//2 24//2
f 1//2 40//2 41//2 37//2
f 32//3 31//3 37//3 4//3
f 26//2 30//2 31//2 27//2
f 27//2 31//2 32//2 28//2
f 2//2 39//2 40//2 1//2
f 22//5 7//5 16//5 11//5
f 25//4 29//4 2//4 10//4
f 31//3 30//3 1//3 37//3
f 10//2 2//2 1//2 9//2
f 12//2 10//2 9//2 11//2
f 15//2 12//2 11//2 16//2
f 4//2 38//2 14//2 13//2
f 29//4 33//4 39//4 2//4
f 18//3 32//3 4//3 13//3
f 26//5 22//5 11//5 9//5
f 34//1 35//1 41//1 40//1
f 35//1 36//1 38//1 41//1
f 17//5 18//5 13//5 14//5
f 8//4 21//4 12//4 15//4
