# Blender v2.79 (sub 0) OBJ File: 'Base.blend'
# www.blender.org
mtllib CrossRoomStrait.mtl
o Plane
v 0.499950 0.000000 -0.499950
v 0.499950 0.500000 0.136401
v 0.499950 0.500000 0.227301
v -0.499950 0.000000 0.499950
v 0.499950 0.000000 0.227301
v 0.499950 0.000000 0.136401
v 0.499950 0.000000 -0.136401
v 0.499950 0.000000 -0.227301
v 0.227300 0.000000 -0.499950
v 0.136400 0.000000 -0.499950
v -0.136401 0.000000 -0.499950
v -0.227301 0.000000 -0.499950
v -0.499950 0.000000 -0.227301
v -0.499950 0.000000 -0.136401
v -0.499950 0.000000 0.136401
v -0.499950 0.000000 0.227301
v -0.227301 0.000000 0.499950
v -0.136401 0.000000 0.499950
v 0.136400 0.000000 0.499950
v 0.227300 0.000000 0.499950
v 0.227300 0.000000 -0.227301
v 0.227300 0.000000 -0.136401
v 0.227300 0.000000 0.136401
v 0.227300 0.000000 0.227301
v 0.136400 0.000000 -0.227301
v 0.136400 0.000000 -0.136401
v 0.136400 0.000000 0.136401
v 0.136400 0.000000 0.227301
v -0.136401 0.000000 -0.227301
v -0.136401 0.000000 -0.136401
v -0.136401 0.000000 0.136401
v -0.136401 0.000000 0.227301
v -0.227301 0.000000 -0.227301
v -0.227301 0.000000 -0.136401
v -0.227301 0.000000 0.136401
v -0.227301 0.000000 0.227301
v -0.136401 0.500000 -0.499950
v -0.227301 0.500000 -0.499950
v -0.499950 0.500000 -0.227301
v -0.499950 0.500000 -0.136401
v 0.136400 0.500000 0.499950
v 0.227300 0.500000 0.499950
v 0.227300 0.500000 0.227301
v 0.227300 0.500000 0.136401
v 0.136400 0.500000 0.227301
v 0.136400 0.500000 0.136401
v -0.136401 0.500000 -0.227301
v -0.136401 0.500000 -0.136401
v -0.227301 0.500000 -0.227301
v -0.227301 0.500000 -0.136401
vn 0.0000 1.0000 0.0000
vn 0.0000 0.0000 -1.0000
vn -1.0000 0.0000 0.0000
vn 1.0000 0.0000 0.0000
vn 0.0000 0.0000 1.0000
usemtl None
s off
f 36//1 16//1 4//1 17//1
f 2//1 44//1 43//1 3//1
f 11//2 12//2 38//2 37//2
f 28//1 32//1 18//1 19//1
f 32//1 36//1 17//1 18//1
f 1//1 9//1 21//1 8//1
f 8//1 21//1 22//1 7//1
f 7//1 22//1 23//1 6//1
f 28//3 19//3 41//3 45//3
f 9//1 10//1 25//1 21//1
f 21//1 25//1 26//1 22//1
f 22//1 26//1 27//1 23//1
f 30//4 29//4 47//4 48//4
f 10//1 11//1 29//1 25//1
f 25//1 29//1 30//1 26//1
f 26//1 30//1 31//1 27//1
f 27//1 31//1 32//1 28//1
f 23//2 27//2 46//2 44//2
f 29//4 11//4 37//4 47//4
f 30//1 34//1 35//1 31//1
f 31//1 35//1 36//1 32//1
f 43//1 45//1 41//1 42//1
f 34//5 30//5 48//5 50//5
f 34//1 14//1 15//1 35//1
f 35//1 15//1 16//1 36//1
f 44//1 46//1 45//1 43//1
f 37//1 38//1 49//1 47//1
f 47//1 49//1 50//1 48//1
f 49//1 39//1 40//1 50//1
f 33//2 13//2 39//2 49//2
f 19//5 20//5 42//5 41//5
f 5//4 6//4 2//4 3//4
f 6//2 23//2 44//2 2//2
f 14//5 34//5 50//5 40//5
f 20//4 24//4 43//4 42//4
f 13//3 14//3 40//3 39//3
f 24//5 5//5 3//5 43//5
f 12//3 33//3 49//3 38//3
f 27//3 28//3 45//3 46//3
