# Blender v2.79 (sub 0) OBJ File: 'Base.blend'
# www.blender.org
mtllib CrossRoomL.mtl
o Plane
v 0.499950 0.000000 -0.499950
v -0.136401 0.500000 -0.499950
v 0.499950 0.000000 0.499950
v -0.499950 0.000000 0.499950
v 0.499950 0.000000 0.227301
v 0.499950 0.000000 0.136401
v 0.499950 0.000000 -0.136401
v 0.499950 0.000000 -0.227301
v 0.227300 0.000000 -0.499950
v 0.136400 0.000000 -0.499950
v -0.136401 0.000000 -0.499950
v -0.227301 0.000000 -0.499950
v -0.499950 0.000000 -0.227301
v -0.499950 0.000000 -0.136401
v -0.499950 0.000000 0.136401
v -0.499950 0.000000 0.227301
v -0.227301 0.000000 0.499950
v -0.136401 0.000000 0.499950
v 0.136400 0.000000 0.499950
v 0.227300 0.000000 0.499950
v 0.227300 0.000000 -0.227301
v 0.227300 0.000000 -0.136401
v 0.227300 0.000000 0.136401
v 0.227300 0.000000 0.227301
v 0.136400 0.000000 -0.227301
v 0.136400 0.000000 -0.136401
v 0.136400 0.000000 0.136401
v 0.136400 0.000000 0.227301
v -0.136401 0.000000 -0.227301
v -0.136401 0.000000 -0.136401
v -0.136401 0.000000 0.136401
v -0.136401 0.000000 0.227301
v -0.227301 0.000000 -0.227301
v -0.227301 0.000000 -0.136401
v -0.227301 0.000000 0.136401
v -0.227301 0.000000 0.227301
v -0.227301 0.500000 -0.499950
v -0.499950 0.500000 -0.227301
v -0.499950 0.500000 -0.136401
v -0.136401 0.500000 -0.227301
v -0.136401 0.500000 -0.136401
v -0.227301 0.500000 -0.227301
v -0.227301 0.500000 -0.136401
vn 0.0000 1.0000 0.0000
vn 0.0000 0.0000 -1.0000
vn -1.0000 0.0000 0.0000
vn 0.0000 0.0000 1.0000
vn 1.0000 0.0000 0.0000
usemtl None
s off
f 36//1 16//1 4//1 17//1
f 5//1 24//1 20//1 3//1
f 24//1 28//1 19//1 20//1
f 28//1 32//1 18//1 19//1
f 32//1 36//1 17//1 18//1
f 1//1 9//1 21//1 8//1
f 8//1 21//1 22//1 7//1
f 7//1 22//1 23//1 6//1
f 6//1 23//1 24//1 5//1
f 9//1 10//1 25//1 21//1
f 21//1 25//1 26//1 22//1
f 22//1 26//1 27//1 23//1
f 23//1 27//1 28//1 24//1
f 10//1 11//1 29//1 25//1
f 25//1 29//1 30//1 26//1
f 26//1 30//1 31//1 27//1
f 27//1 31//1 32//1 28//1
f 11//2 12//2 37//2 2//2
f 13//3 14//3 39//3 38//3
f 30//1 34//1 35//1 31//1
f 31//1 35//1 36//1 32//1
f 2//1 37//1 42//1 40//1
f 14//4 34//4 43//4 39//4
f 34//1 14//1 15//1 35//1
f 35//1 15//1 16//1 36//1
f 40//1 42//1 43//1 41//1
f 42//1 38//1 39//1 43//1
f 34//4 30//4 41//4 43//4
f 29//5 11//5 2//5 40//5
f 12//3 33//3 42//3 37//3
f 33//2 13//2 38//2 42//2
f 30//5 29//5 40//5 41//5
