# Blender v2.79 (sub 0) OBJ File: 'Base.blend'
# www.blender.org
mtllib DeadEnd.mtl
o Plane
v 0.272801 1.000000 -0.454601
v 0.272801 1.000000 -0.272801
v 0.272801 1.000000 0.272801
v 0.272801 1.000000 0.454601
v -0.999900 0.000000 -0.454601
v -0.999900 0.000000 -0.272801
v -0.999900 0.000000 0.272801
v -0.999900 0.000000 0.454601
v -0.272801 1.000000 -0.454601
v -0.272801 1.000000 -0.272801
v -0.272801 1.000000 0.272801
v -0.272801 1.000000 0.454601
v -0.454601 1.000000 -0.454601
v -0.454601 1.000000 -0.272801
v -0.454601 1.000000 0.272801
v -0.454601 1.000000 0.454601
v -0.999900 1.000000 0.454601
v -0.999900 1.000000 0.272801
v -0.999900 1.000000 -0.272801
v -0.999900 1.000000 -0.454601
v -0.454601 0.000000 0.454601
v -0.454601 0.000000 0.272801
v -0.454601 0.000000 -0.272801
v -0.454601 0.000000 -0.454601
v -0.272801 0.000000 0.454601
v -0.272801 0.000000 0.272801
v -0.272801 0.000000 -0.272801
v -0.272801 0.000000 -0.454601
v 0.272801 0.000000 0.454601
v 0.272801 0.000000 0.272801
v 0.272801 0.000000 -0.272801
v 0.272801 0.000000 -0.454601
v 0.454601 0.000000 0.454601
v 0.454601 0.000000 0.272801
v 0.454601 0.000000 -0.272801
v 0.454601 0.000000 -0.454601
v 0.454601 1.000000 0.454601
v 0.454601 1.000000 0.272801
v 0.454601 1.000000 -0.272801
v 0.454601 1.000000 -0.454601
vn 1.0000 0.0000 0.0000
vn 0.0000 0.0000 1.0000
vn -1.0000 0.0000 0.0000
vn 0.0000 0.0000 -1.0000
vn 0.0000 1.0000 0.0000
usemtl None
s off
f 33//1 34//1 38//1 37//1
f 21//2 25//2 12//2 16//2
f 7//3 8//3 17//3 18//3
f 32//4 28//4 9//4 1//4
f 2//5 39//5 40//5 1//5
f 3//5 38//5 39//5 2//5
f 24//4 5//4 20//4 13//4
f 7//5 22//5 23//5 6//5
f 27//2 31//2 2//2 10//2
f 4//5 37//5 38//5 3//5
f 5//3 6//3 19//3 20//3
f 22//5 26//5 27//5 23//5
f 6//2 23//2 14//2 19//2
f 10//5 2//5 1//5 9//5
f 30//4 26//4 11//4 3//4
f 26//5 30//5 31//5 27//5
f 22//4 7//4 18//4 15//4
f 12//5 4//5 3//5 11//5
f 25//2 29//2 4//2 12//2
f 31//3 30//3 3//3 2//3
f 36//4 32//4 1//4 40//4
f 14//5 10//5 9//5 13//5
f 16//5 12//5 11//5 15//5
f 19//5 14//5 13//5 20//5
f 17//5 16//5 15//5 18//5
f 29//2 33//2 37//2 4//2
f 26//4 22//4 15//4 11//4
f 34//1 35//1 39//1 38//1
f 23//2 27//2 10//2 14//2
f 35//1 36//1 40//1 39//1
f 28//4 24//4 13//4 9//4
f 8//2 21//2 16//2 17//2
