# Blender v2.79 (sub 0) OBJ File: 'Base.blend'
# www.blender.org
mtllib TCorridorLeft.mtl
o Plane
v -0.999900 0.000000 0.999900
v -0.272801 1.000000 -0.999900
v 0.272801 1.000000 -0.999900
v 0.454601 1.000000 -0.999900
v -0.999900 0.000000 -0.454601
v -0.999900 0.000000 -0.272801
v -0.999900 0.000000 0.272801
v -0.999900 0.000000 0.454601
v -0.454601 0.000000 0.999900
v -0.272801 0.000000 0.999900
v 0.272801 0.000000 0.999900
v 0.454601 0.000000 0.999900
v 0.454601 1.000000 0.999900
v 0.272801 1.000000 0.999900
v -0.999900 1.000000 -0.272801
v -0.999900 1.000000 -0.454601
v 0.454601 0.000000 -0.999900
v 0.272801 0.000000 -0.999900
v -0.272801 0.000000 -0.999900
v -0.454601 0.000000 -0.999900
v -0.454601 0.000000 0.454601
v -0.454601 0.000000 0.272801
v -0.454601 0.000000 -0.272801
v -0.454601 0.000000 -0.454601
v -0.272801 0.000000 0.454601
v -0.272801 0.000000 0.272801
v -0.272801 0.000000 -0.272801
v -0.272801 0.000000 -0.454601
v 0.272801 0.000000 0.454601
v 0.272801 0.000000 0.272801
v 0.272801 0.000000 -0.272801
v 0.272801 0.000000 -0.454601
v 0.454601 0.000000 0.454601
v 0.454601 0.000000 0.272801
v 0.454601 0.000000 -0.272801
v 0.454601 0.000000 -0.454601
v -0.454601 1.000000 -0.999900
v -0.454601 1.000000 -0.454601
v -0.454601 1.000000 -0.272801
v -0.272801 1.000000 -0.454601
v -0.272801 1.000000 -0.272801
v 0.272801 1.000000 -0.454601
v 0.272801 1.000000 0.454601
v 0.272801 1.000000 0.272801
v 0.272801 1.000000 -0.272801
v 0.454601 1.000000 -0.454601
v 0.454601 1.000000 0.454601
v 0.454601 1.000000 0.272801
v 0.454601 1.000000 -0.272801
vn 0.0000 1.0000 0.0000
vn 1.0000 0.0000 0.0000
vn -1.0000 0.0000 0.0000
vn 0.0000 0.0000 1.0000
vn 0.0000 0.0000 -1.0000
usemtl None
s off
f 43//1 47//1 48//1 44//1
f 14//1 13//1 47//1 43//1
f 36//2 17//2 4//2 46//2
f 28//1 32//1 18//1 19//1
f 20//3 24//3 38//3 37//3
f 1//1 9//1 21//1 8//1
f 8//1 21//1 22//1 7//1
f 7//1 22//1 23//1 6//1
f 5//3 6//3 15//3 16//3
f 9//1 10//1 25//1 21//1
f 21//1 25//1 26//1 22//1
f 22//1 26//1 27//1 23//1
f 6//4 23//4 39//4 15//4
f 10//1 11//1 29//1 25//1
f 25//1 29//1 30//1 26//1
f 26//1 30//1 31//1 27//1
f 27//1 31//1 32//1 28//1
f 32//3 31//3 45//3 42//3
f 19//5 20//5 37//5 2//5
f 11//4 12//4 13//4 14//4
f 31//3 30//3 44//3 45//3
f 39//1 41//1 40//1 38//1
f 15//1 39//1 38//1 16//1
f 42//1 46//1 4//1 3//1
f 38//1 40//1 2//1 37//1
f 44//1 48//1 49//1 45//1
f 45//1 49//1 46//1 42//1
f 24//5 5//5 16//5 38//5
f 12//2 33//2 47//2 13//2
f 27//2 28//2 40//2 41//2
f 33//2 34//2 48//2 47//2
f 18//3 32//3 42//3 3//3
f 34//2 35//2 49//2 48//2
f 29//3 11//3 14//3 43//3
f 23//4 27//4 41//4 39//4
f 35//2 36//2 46//2 49//2
f 17//5 18//5 3//5 4//5
f 30//3 29//3 43//3 44//3
f 28//2 19//2 2//2 40//2
