# Blender v2.79 (sub 0) OBJ File: 'Base.blend'
# www.blender.org
mtllib TCorridor.mtl
o Plane
v 0.454601 1.000000 0.999900
v 0.272801 1.000000 0.999900
v -0.272801 1.000000 0.999900
v -0.454601 1.000000 0.999900
v -0.999900 0.000000 -0.454601
v -0.999900 0.000000 -0.272801
v -0.999900 0.000000 0.272801
v -0.999900 0.000000 0.454601
v -0.454601 0.000000 0.999900
v -0.272801 0.000000 0.999900
v 0.272801 0.000000 0.999900
v 0.454601 0.000000 0.999900
v -0.999900 1.000000 0.454601
v -0.999900 1.000000 0.272801
v -0.999900 1.000000 -0.272801
v -0.999900 1.000000 -0.454601
v 0.454601 0.000000 -0.999900
v 0.272801 0.000000 -0.999900
v -0.272801 0.000000 -0.999900
v -0.454601 0.000000 -0.999900
v -0.454601 0.000000 0.454601
v -0.454601 0.000000 0.272801
v -0.454601 0.000000 -0.272801
v -0.454601 0.000000 -0.454601
v -0.272801 0.000000 0.454601
v -0.272801 0.000000 0.272801
v -0.272801 0.000000 -0.272801
v -0.272801 0.000000 -0.454601
v 0.272801 0.000000 0.454601
v 0.272801 0.000000 0.272801
v 0.272801 0.000000 -0.272801
v 0.272801 0.000000 -0.454601
v 0.454601 0.000000 0.454601
v 0.454601 0.000000 0.272801
v 0.454601 0.000000 -0.272801
v 0.454601 0.000000 -0.454601
v 0.454601 1.000000 -0.999900
v 0.272801 1.000000 -0.999900
v -0.272801 1.000000 -0.999900
v -0.454601 1.000000 -0.999900
v -0.454601 1.000000 -0.454601
v -0.454601 1.000000 0.454601
v -0.454601 1.000000 0.272801
v -0.454601 1.000000 -0.272801
v -0.272801 1.000000 -0.454601
v -0.272801 1.000000 0.454601
v -0.272801 1.000000 0.272801
v -0.272801 1.000000 -0.272801
v 0.272801 1.000000 -0.454601
v 0.272801 1.000000 0.454601
v 0.272801 1.000000 0.272801
v 0.272801 1.000000 -0.272801
v 0.454601 1.000000 -0.454601
v 0.454601 1.000000 0.454601
v 0.454601 1.000000 0.272801
v 0.454601 1.000000 -0.272801
vn 0.0000 1.0000 0.0000
vn 0.0000 0.0000 1.0000
vn 0.0000 0.0000 -1.0000
vn -1.0000 0.0000 0.0000
vn 1.0000 0.0000 0.0000
usemtl None
s off
f 44//1 48//1 45//1 41//1
f 42//1 46//1 47//1 43//1
f 23//2 27//2 48//2 44//2
f 28//1 32//1 18//1 19//1
f 19//3 20//3 40//3 39//3
f 4//1 3//1 46//1 42//1
f 30//4 29//4 50//4 51//4
f 7//1 22//1 23//1 6//1
f 5//4 6//4 15//4 16//4
f 26//3 22//3 43//3 47//3
f 29//4 11//4 2//4 50//4
f 22//1 26//1 27//1 23//1
f 17//3 18//3 38//3 37//3
f 10//1 11//1 29//1 25//1
f 25//1 29//1 30//1 26//1
f 26//1 30//1 31//1 27//1
f 27//1 31//1 32//1 28//1
f 18//4 32//4 49//4 38//4
f 24//3 5//3 16//3 41//3
f 27//5 28//5 45//5 48//5
f 6//2 23//2 44//2 15//2
f 15//1 44//1 41//1 16//1
f 13//1 42//1 43//1 14//1
f 49//1 53//1 37//1 38//1
f 41//1 45//1 39//1 40//1
f 2//1 1//1 54//1 50//1
f 50//1 54//1 55//1 51//1
f 51//1 55//1 56//1 52//1
f 52//1 56//1 53//1 49//1
f 31//4 30//4 51//4 52//4
f 20//4 24//4 41//4 40//4
f 7//4 8//4 13//4 14//4
f 32//4 31//4 52//4 49//4
f 21//4 9//4 4//4 42//4
f 36//5 17//5 37//5 53//5
f 9//2 10//2 3//2 4//2
f 12//5 33//5 54//5 1//5
f 33//5 34//5 55//5 54//5
f 11//2 12//2 1//2 2//2
f 34//5 35//5 56//5 55//5
f 28//5 19//5 39//5 45//5
f 35//5 36//5 53//5 56//5
f 10//5 25//5 46//5 3//5
f 8//2 21//2 42//2 13//2
f 25//5 26//5 47//5 46//5
f 22//3 7//3 14//3 43//3
