# Blender v2.79 (sub 0) OBJ File: 'Base.blend'
# www.blender.org
mtllib TRoom.mtl
o Plane
v -0.999900 0.000000 0.999900
v 0.272801 1.000000 0.454601
v -0.999900 0.000000 -0.999900
v 0.272801 1.000000 -0.454601
v -0.999900 0.000000 -0.454601
v -0.999900 0.000000 -0.272801
v -0.999900 0.000000 0.272801
v -0.999900 0.000000 0.454601
v -0.454601 0.000000 0.999900
v -0.272801 0.000000 0.999900
v 0.272801 0.000000 0.999900
v 0.454601 0.000000 0.999900
v 0.272801 1.000000 -0.999900
v 0.454601 1.000000 -0.999900
v 0.454601 1.000000 0.999900
v 0.272801 1.000000 0.999900
v 0.454601 0.000000 -0.999900
v 0.272801 0.000000 -0.999900
v -0.272801 0.000000 -0.999900
v -0.454601 0.000000 -0.999900
v -0.454601 0.000000 0.454601
v -0.454601 0.000000 0.272801
v -0.454601 0.000000 -0.272801
v -0.454601 0.000000 -0.454601
v -0.272801 0.000000 0.454601
v -0.272801 0.000000 0.272801
v -0.272801 0.000000 -0.272801
v -0.272801 0.000000 -0.454601
v 0.272801 0.000000 0.454601
v 0.272801 0.000000 0.272801
v 0.272801 0.000000 -0.272801
v 0.272801 0.000000 -0.454601
v 0.454601 0.000000 0.454601
v 0.454601 0.000000 0.272801
v 0.454601 0.000000 -0.272801
v 0.454601 0.000000 -0.454601
v 0.272801 1.000000 0.272801
v 0.272801 1.000000 -0.272801
v 0.454601 1.000000 -0.454601
v 0.454601 1.000000 0.454601
v 0.454601 1.000000 0.272801
v 0.454601 1.000000 -0.272801
vn 0.0000 1.0000 0.0000
vn -1.0000 0.0000 0.0000
vn 1.0000 0.0000 0.0000
vn 0.0000 0.0000 -1.0000
vn 0.0000 0.0000 1.0000
usemtl None
s off
f 38//1 42//1 39//1 4//1
f 5//1 24//1 20//1 3//1
f 24//1 28//1 19//1 20//1
f 28//1 32//1 18//1 19//1
f 18//2 32//2 4//2 13//2
f 1//1 9//1 21//1 8//1
f 8//1 21//1 22//1 7//1
f 7//1 22//1 23//1 6//1
f 6//1 23//1 24//1 5//1
f 9//1 10//1 25//1 21//1
f 21//1 25//1 26//1 22//1
f 22//1 26//1 27//1 23//1
f 23//1 27//1 28//1 24//1
f 10//1 11//1 29//1 25//1
f 25//1 29//1 30//1 26//1
f 26//1 30//1 31//1 27//1
f 27//1 31//1 32//1 28//1
f 31//2 30//2 37//2 38//2
f 12//3 33//3 40//3 15//3
f 35//3 36//3 39//3 42//3
f 30//2 29//2 2//2 37//2
f 37//1 41//1 42//1 38//1
f 2//1 40//1 41//1 37//1
f 16//1 15//1 40//1 2//1
f 4//1 39//1 14//1 13//1
f 33//3 34//3 41//3 40//3
f 32//2 31//2 38//2 4//2
f 17//4 18//4 13//4 14//4
f 29//2 11//2 16//2 2//2
f 34//3 35//3 42//3 41//3
f 11//5 12//5 15//5 16//5
f 36//3 17//3 14//3 39//3
